<svg width="82" height="82" viewBox="0 0 82 82" fill="none" xmlns="http://www.w3.org/2000/svg">
<rect y="2" width="80" height="80" rx="40" fill="#FECA7F"/>
<rect x="2.5" y="0.5" width="79" height="79" rx="39.5" stroke="black"/>
<path d="M57.14 47.72L60 44.86L57.14 42L50 49.14L32.86 32L40 24.86L37.14 22L34.28 24.86L31.42 22L27.14 26.28L24.28 23.42L21.42 26.28L24.28 29.14L20 33.42L22.86 36.28L20 39.14L22.86 42L30 34.86L47.14 52L40 59.14L42.86 62L45.72 59.14L48.58 62L52.86 57.72L55.72 60.58L58.58 57.72L55.72 54.86L60 50.58L57.14 47.72Z" fill="white"/>
</svg>
