<svg width="714" height="307" viewBox="0 0 714 307" fill="none" xmlns="http://www.w3.org/2000/svg">
<path d="M693.96 306.57H110.141L186.121 201.887H617.98L693.96 306.57Z" fill="#FDE8C7"/>
<path d="M412.681 134.113C412.681 134.113 412.681 134.159 412.649 134.267C412.264 134.482 411.991 134.636 411.83 134.728L412.681 134.113Z" fill="#EC7B06"/>
<path d="M484.357 289.933C478.961 290.164 447.041 287.812 439.43 286.167C433.553 284.891 432.654 279.556 430.294 270.562C429.603 267.933 428.768 264.981 427.66 261.722C422.747 247.393 421.029 219.658 415.136 186.342C409.549 154.779 412.342 136.145 412.648 134.27C417.481 131.502 438.9 120.049 440.426 133.178C442.144 147.983 439.687 181.822 442.384 202.039C444.905 220.873 445.275 255.249 447.314 264.382C447.458 265.058 447.619 265.581 447.779 265.965C450.236 271.592 452.452 272.299 471.591 274.882C490.731 277.48 490.249 279.833 496.624 285.706C503.014 291.579 489.752 289.703 484.357 289.933Z" fill="#F9B54E"/>
<path d="M704.286 104.259C687.844 103.091 672.622 112.73 666.729 112.73C664.546 112.73 661.077 112.054 656.084 111.27C647.638 109.932 634.873 108.318 616.649 109.194C587.698 110.609 581.934 109.025 562.409 108.503C542.884 107.98 484.84 101.676 476.988 86.1639C469.136 70.6513 502.518 73.2495 502.518 73.2495C502.518 73.2495 506.115 85.4105 533.443 84.5188C559.358 83.6732 560.932 80.5215 593.334 88.2855C619.924 94.635 649.629 99.1089 664.064 97.6484C667.211 97.3409 669.652 96.7259 671.145 95.8035C679.494 90.6378 700.111 87.8089 706.245 93.9278C712.378 100.031 720.728 105.443 704.286 104.259Z" fill="#F9B54E"/>
<path d="M473.552 97.4504C476.49 107.797 466.68 118.129 453.915 135.993C441.15 153.858 434.567 135.686 418.574 143.05C396.866 153.043 400.896 151.983 377.341 155.273C353.786 158.563 332.141 153.474 321.833 156.287C311.524 159.101 311.557 157.625 313.532 132.242C315.506 106.859 341.02 94.1757 341.02 94.1757C372.813 90.4705 386.043 78.7399 414.737 73.0976C445.613 67.0248 439.03 78.1865 449.515 76.3108L473.568 97.4657L473.552 97.4504Z" fill="#F9B54E"/>
<path d="M446.817 76.4795C446.817 76.4795 461.782 76.7562 469.891 59.5986C477.983 42.441 475.045 21.0555 484.856 20.1177C494.666 19.1799 513.324 16.8276 512.842 40.5654C512.345 64.3032 511.863 80.7536 503.273 79.8157C494.682 78.8779 488.549 78.4013 485.353 81.9374C482.158 85.4734 469.65 96.2661 464.496 96.7427C459.342 97.2193 446.833 76.4795 446.833 76.4795H446.817Z" fill="#F9CABD"/>
<path d="M346.43 95.4796C346.43 95.4796 308.119 85.8861 274.978 95.4796C241.837 105.073 206.866 100.046 180.356 96.7403C153.847 93.4349 83.5187 80.1977 68.7948 73.0641C54.0708 65.9458 36.0232 88.4536 44.1318 92.8814C52.2243 97.3092 61.0876 99.7229 93.4738 111.699C125.876 123.691 146.477 118.818 181.818 136.083C217.158 153.364 330.55 161.758 350.252 157.976C369.953 154.194 346.414 95.4643 346.414 95.4643L346.43 95.4796Z" fill="#4E4D4D"/>
<path d="M222.554 234.308C222.554 234.308 218.443 213.246 213.803 212.031C209.163 210.816 183.649 228.927 170.996 234.308C158.343 239.689 145.482 254.233 159.194 254.233C172.907 254.233 179.651 246.362 194.198 249.99C208.745 253.618 222.554 234.308 222.554 234.308Z" fill="#F9CABD"/>
<path d="M67.3984 74.4659C67.3984 74.4659 56.9295 53.6953 51.7593 53.6953C46.589 53.6953 25.4103 79.3702 13.8495 88.3795C2.28873 97.3888 -6.78327 115.945 7.44291 112.256C21.6852 108.566 26.3737 98.5572 42.5588 98.4035C58.7439 98.2498 67.3984 74.4659 67.3984 74.4659Z" fill="#F9CABD"/>
<path d="M301.023 144.215C301.023 144.215 293.171 161.772 298.695 183.281C304.218 204.789 309.132 232.693 301.023 230.941C292.914 229.188 250.958 230.387 231.803 231.018C212.663 231.648 208.232 237.29 207.878 245.392C207.509 253.495 226.616 253.372 265.313 259.906C303.608 266.363 333.425 269.376 341.887 251.388C350.349 233.416 358.827 159.727 358.088 144.215C357.35 128.702 301.023 144.215 301.023 144.215Z" fill="#4E4D4D"/>
<path d="M512.825 38.5206C512.825 38.5206 513.773 -15.9964 483.827 4.68195C453.881 25.3602 456.755 31.2947 448.904 36.1376C441.052 40.9804 460.272 80.8304 470.58 65.3178C480.889 49.8052 498.615 14.0602 512.825 38.5206Z" fill="#4E4D4D"/>
<path d="M487.023 43.2404C487.023 43.2404 481.516 29.4344 475.8 38.6897C470.084 47.9449 469.49 57.7383 475.8 57.0772" fill="#F9CABD"/>
<path d="M704.285 104.259C687.843 103.091 672.621 112.731 666.729 112.731C664.545 112.731 661.077 112.054 656.083 111.27C658.315 108.011 661.462 103.076 664.063 97.6485C667.21 97.341 669.651 96.7261 671.144 95.8036C679.494 90.6379 700.11 87.809 706.244 93.928C712.378 100.032 720.727 105.443 704.285 104.259Z" fill="#F9CABD"/>
<path d="M484.356 289.935C478.961 290.165 447.04 287.813 439.429 286.168C433.552 284.892 432.653 279.557 430.293 270.563C435.849 269.733 442.239 267.996 447.313 264.383C447.458 265.059 447.618 265.582 447.779 265.966C450.235 271.593 452.451 272.301 471.591 274.883C490.73 277.482 490.248 279.834 496.623 285.707C503.014 291.58 489.751 289.704 484.356 289.935Z" fill="#F9CABD"/>
</svg>
