<svg width="865" height="372" viewBox="0 0 865 372" fill="none" xmlns="http://www.w3.org/2000/svg">
<path d="M223.466 101.304H210.786V340.529H223.466V101.304Z" fill="#4E4D4D"/>
<path d="M381.437 105.94H368.757V345.166H381.437V105.94Z" fill="#4E4D4D"/>
<path d="M103.46 311.854C103.46 311.854 84.6241 309.549 66.2051 306.385C47.7862 303.246 -5.99897 310.947 0.549433 317.863C7.09784 324.78 61.6188 319.359 60.5397 323.602C59.4605 327.845 34.7385 327.257 42.9546 331.966C51.1953 336.675 62.9923 327.232 80.8961 332.505C98.8 337.778 113.859 334.811 119.279 325.245C124.699 315.68 103.46 311.83 103.46 311.83V311.854Z" fill="#F9CABD"/>
<path d="M404.246 239.585L355.022 232.938L351.613 283.633L385.729 285.571L404.246 239.585Z" fill="#F9CABD"/>
<path d="M632.507 171.671C632.507 171.671 641.288 159.212 722.395 163.921C803.526 168.63 1068.5 180.427 1071.74 186.484C1074.98 192.542 1071.05 233.574 1071.05 233.574C1071.05 233.574 818.512 252.14 786.726 262.245C754.94 272.349 674.913 294.57 609.134 262.245C543.356 229.92 632.532 171.671 632.532 171.671H632.507Z" fill="#4E4D4D"/>
<path d="M632.508 242.355C632.508 242.355 641.288 229.896 722.395 234.605C803.527 239.314 1066.57 254.79 1069.78 260.848C1072.99 266.906 1068.99 308.158 1068.99 308.158C1068.99 308.158 818.488 322.825 786.702 332.929C754.917 343.034 674.889 365.254 609.11 332.929C543.332 300.604 632.508 242.355 632.508 242.355Z" fill="#4E4D4D"/>
<path d="M294.861 81.4104C294.861 81.4104 312.765 61.6671 339.082 46.3384C365.398 31.0097 419.109 -6.63745 429.705 1.01462C440.3 8.66669 462.594 41.5804 461.49 87.2475C460.387 132.915 460.754 156.312 466.248 161.07C471.717 165.828 501.075 178.189 555.154 174.903C609.234 171.617 631.037 167.643 632.509 172.401C633.981 177.159 626.745 315.755 623.459 334.027C620.172 352.299 584.929 334.959 514.589 335.253C420.213 335.645 403.756 346.976 372.314 349.208C340.897 351.44 246.668 346.707 220.303 344.499C193.938 342.316 122.616 335.719 103.118 337.191C83.6203 338.662 81.4375 302.486 138.926 306.386C196.415 310.286 175.322 305.013 231.389 314.063C275.805 321.224 323.851 303.1 345.287 300.181C366.722 297.262 373.54 289.954 373.54 289.954C373.54 289.954 383.277 242.692 395.467 238.302C407.656 233.912 417.393 213.948 415.431 198.84C413.493 183.732 402.285 165.706 404.222 122.835C406.16 79.9633 406.65 61.9369 401.058 62.9179C395.467 63.8989 364.27 77.5353 345.753 82.8819C327.236 88.2531 310.19 98.4804 310.19 98.4804L294.837 81.4349L294.861 81.4104Z" fill="#F9B54E"/>
<path d="M359.389 229.644C359.389 229.644 329.762 202.469 296.995 213.334C264.228 224.199 242.008 252.232 266.583 280.756C291.133 309.279 349.627 307.44 355.808 275.335C361.989 243.231 359.389 229.644 359.389 229.644Z" fill="#4E4D4D"/>
<path d="M339.425 132.842H170.172V149.887H339.425V132.842Z" fill="#34292B"/>
<path d="M183.147 132.229H170.467V371.454H183.147V132.229Z" fill="#34292B"/>
<path d="M339.4 132.845L381.438 100.814V121.269L339.4 149.891V132.845Z" fill="#34292B"/>
<path d="M170.172 132.842L233.67 98.7266L381.438 100.811L339.401 132.842H170.172Z" fill="#4E4D4D"/>
<path d="M339.425 132.229H326.745V371.454H339.425V132.229Z" fill="#34292B"/>
<path d="M294.862 81.4141C294.862 81.4141 271.121 89.8264 252.481 91.2735C233.841 92.745 188.542 107.362 196.562 112.464C204.607 117.59 256.135 98.9501 256.135 103.34C256.135 107.73 232.002 113.2 241.15 115.775C250.274 118.326 259.422 106.283 278.062 106.995C296.701 107.73 307.296 109.055 310.215 98.4595C313.134 87.8644 294.862 81.4141 294.862 81.4141Z" fill="#F9CABD"/>
</svg>
