<svg width="585" height="957" viewBox="0 0 585 957" fill="none" xmlns="http://www.w3.org/2000/svg">
<g clip-path="url(#clip0_591_4888)">
<g opacity="0.4">
<path d="M404.176 1.19803C301.194 -9.5444 258.917 53.9881 247.425 110.413C239.223 150.697 230.11 262.597 301.194 284.977C301.194 284.977 303.928 370.021 126.672 367.783C126.672 367.783 17.3108 379.421 21.8675 504.749C21.8675 504.749 37.6429 651.016 39.1831 722.284C39.3836 731.719 39.3016 742.784 39.0373 754.43C37.7705 810.3 82.6177 856.734 139.476 858.507L169.952 860.592L145.346 1126.47L632.286 1126.02C632.286 1126.02 644.306 902.219 517.63 827.022H537.023C560.791 827.022 581.342 810.712 586.327 787.884L626.079 605.907C626.079 605.907 652.919 503.057 539.502 444.771C503.057 426.043 429.229 371.364 427.862 309.148C427.862 309.148 493.488 300.375 514.44 182.029C525.376 120.26 507.113 11.9405 404.167 1.19803H404.176Z" fill="#C1DAB9"/>
<path d="M282.956 298.411C282.956 298.411 282.874 298.411 282.828 298.411C281.388 298.367 280.176 297.507 279.62 296.299C278.599 295.368 278.162 293.909 278.636 292.53C279.274 290.659 281.343 289.648 283.247 290.265C283.521 290.355 283.794 290.444 284.067 290.525C285.535 290.981 286.546 292.315 286.601 293.828C286.601 293.828 286.619 294.222 286.592 294.947C286.528 296.881 284.906 298.411 282.947 298.411H282.956Z" fill="black"/>
<path d="M132.621 871.819C132.539 871.819 132.448 871.819 132.366 871.819L130.525 871.693C128.52 871.559 126.998 869.849 127.144 867.871C127.28 865.901 129.021 864.406 131.035 864.55L132.876 864.675C134.881 864.809 136.403 866.519 136.257 868.497C136.12 870.386 134.525 871.828 132.621 871.828V871.819ZM112.389 870.395C112.252 870.395 112.106 870.395 111.961 870.368C111.323 870.297 110.694 870.216 110.065 870.136C108.069 869.876 106.666 868.068 106.939 866.107C107.203 864.147 109.044 862.768 111.04 863.037C111.623 863.117 112.216 863.189 112.808 863.252C114.804 863.484 116.244 865.257 116.007 867.226C115.788 869.052 114.212 870.395 112.389 870.395ZM92.6036 866.17C92.2299 866.17 91.8563 866.116 91.4826 866C90.872 865.812 90.2705 865.606 89.6691 865.409C87.7643 864.764 86.7528 862.732 87.4089 860.861C88.0651 858.99 90.1338 857.997 92.0386 858.641C92.5945 858.829 93.1595 859.017 93.7245 859.187C95.6384 859.796 96.6955 861.81 96.0758 863.69C95.5746 865.212 94.1437 866.17 92.6036 866.17ZM74.0395 858.229C73.438 858.229 72.8274 858.086 72.2624 857.773C71.7065 857.469 71.1597 857.164 70.6129 856.851C68.8722 855.857 68.2798 853.664 69.2914 851.954C70.303 850.244 72.5358 849.662 74.2765 850.656C74.7868 850.951 75.2972 851.238 75.8166 851.515C77.5755 852.482 78.2044 854.658 77.2201 856.385C76.5548 857.558 75.3154 858.22 74.0304 858.22L74.0395 858.229ZM57.4075 846.896C56.5782 846.896 55.7397 846.619 55.0562 846.046C54.5732 845.643 54.0902 845.231 53.6072 844.819C52.0943 843.512 51.9485 841.247 53.2791 839.77C54.6097 838.284 56.9154 838.141 58.4282 839.448C58.8747 839.833 59.3213 840.209 59.7679 840.585C61.308 841.865 61.4903 844.121 60.1871 845.634C59.4671 846.467 58.4373 846.896 57.4075 846.896ZM43.3181 832.609C42.2427 832.609 41.1856 832.143 40.4656 831.257C40.0737 830.765 39.6818 830.281 39.29 829.78C38.0596 828.213 38.3604 825.966 39.9552 824.758C41.5501 823.549 43.8376 823.845 45.0679 825.42C45.4324 825.886 45.797 826.342 46.1706 826.799C47.4283 828.348 47.164 830.604 45.5873 831.83C44.913 832.358 44.111 832.609 43.3181 832.609ZM32.3 815.913C30.9785 815.913 29.7026 815.206 29.0556 813.971C28.7639 813.416 28.4723 812.861 28.1898 812.297C27.2967 810.524 28.0349 808.376 29.8393 807.498C31.6438 806.621 33.831 807.346 34.7241 809.119C34.9884 809.638 35.2527 810.166 35.5261 810.685C36.4466 812.44 35.7448 814.606 33.9586 815.51C33.4209 815.779 32.8559 815.913 32.2908 815.913H32.3ZM24.7996 797.427C23.2139 797.427 21.7557 796.407 21.3 794.84C21.1269 794.24 20.9537 793.632 20.7897 793.023C20.2702 791.116 21.4185 789.147 23.3597 788.636C25.3099 788.126 27.3058 789.254 27.8253 791.17C27.9802 791.734 28.1351 792.298 28.2992 792.862C28.8551 794.76 27.7432 796.747 25.8021 797.293C25.4649 797.392 25.1277 797.436 24.7905 797.436L24.7996 797.427ZM21.136 777.858C19.2586 777.858 17.6638 776.444 17.5088 774.582C17.4542 773.955 17.4086 773.337 17.363 772.711C17.2263 770.732 18.7483 769.031 20.7623 768.906C22.7764 768.781 24.508 770.267 24.6355 772.245C24.672 772.827 24.7176 773.409 24.7723 773.982C24.9454 775.951 23.4508 777.688 21.4458 777.849C21.3456 777.849 21.2362 777.858 21.136 777.858ZM20.972 757.949H20.9173C18.9032 757.922 17.2992 756.293 17.3266 754.314L17.3539 752.515C17.3813 750.555 19.0035 748.979 20.9993 748.979H21.0449C23.0589 749.006 24.672 750.626 24.6447 752.604L24.6173 754.422C24.59 756.382 22.9587 757.949 20.972 757.949ZM20.9993 738.022C19.0126 738.022 17.3813 736.455 17.3539 734.495L17.3266 732.695C17.2901 730.717 18.8941 729.088 20.9082 729.052C22.9405 729.007 24.5809 730.591 24.6173 732.57L24.6447 734.396C24.672 736.375 23.068 738.004 21.054 738.031H20.9993V738.022ZM20.3887 718.077C18.4475 718.077 16.8344 716.573 16.7524 714.648L16.6704 712.84C16.5793 710.861 18.1377 709.187 20.1517 709.107C22.1658 709.008 23.87 710.548 23.952 712.526L24.0341 714.344C24.1161 716.322 22.5577 717.987 20.5436 718.077C20.4889 718.077 20.4434 718.077 20.3887 718.077ZM19.3771 698.149C17.4633 698.149 15.8502 696.681 15.7408 694.774L15.6315 692.966C15.513 690.988 17.0532 689.296 19.0581 689.188C21.0722 689.063 22.7946 690.585 22.904 692.554L23.0134 694.363C23.1318 696.341 21.5917 698.033 19.5867 698.14C19.5138 698.14 19.4409 698.14 19.3771 698.14V698.149ZM18.1103 678.231C16.2056 678.231 14.6017 676.781 14.4741 674.892L14.3465 673.084C14.2098 671.114 15.7317 669.404 17.7367 669.27C19.7508 669.163 21.4823 670.631 21.619 672.6L21.7466 674.418C21.8833 676.387 20.3613 678.097 18.3564 678.231C18.2744 678.231 18.1924 678.231 18.1103 678.231ZM16.6704 658.322C14.7839 658.322 13.18 656.889 13.0433 655.01L12.9066 653.201C12.7516 651.232 14.2553 649.513 16.2694 649.361C18.2744 649.209 20.0241 650.686 20.1791 652.664L20.3158 654.472C20.4616 656.442 18.9579 658.161 16.9529 658.313C16.8618 658.313 16.7707 658.322 16.6795 658.322H16.6704ZM15.0938 638.43C13.2164 638.43 11.6216 637.007 11.4666 635.136L11.3208 633.328C11.1568 631.358 12.6514 629.631 14.6563 629.469C16.6795 629.308 18.4202 630.776 18.5842 632.746L18.73 634.554C18.8941 636.524 17.3995 638.251 15.3854 638.412C15.2852 638.412 15.1849 638.421 15.0847 638.421L15.0938 638.43ZM13.4169 618.548C11.5487 618.548 9.9538 617.143 9.78976 615.272L9.63484 613.463C9.46168 611.494 10.9472 609.757 12.9521 609.587C14.9662 609.435 16.7251 610.876 16.8982 612.846L17.0532 614.654C17.2263 616.623 15.7408 618.36 13.7359 618.53C13.6265 618.53 13.5263 618.539 13.4169 618.539V618.548ZM11.6489 598.665C9.78064 598.665 8.19491 597.269 8.02175 595.407L7.85772 593.599C7.67545 591.629 9.16093 589.893 11.1659 589.713C13.1708 589.534 14.9389 590.994 15.1211 592.963L15.2852 594.771C15.4674 596.741 13.9819 598.478 11.977 598.657C11.8676 598.666 11.7583 598.674 11.6489 598.674V598.665ZM9.79887 578.792C7.93973 578.792 6.35399 577.396 6.17173 575.542L5.99857 573.734C5.80719 571.765 7.28356 570.019 9.28852 569.84C11.2935 569.661 13.0706 571.102 13.2529 573.072L13.426 574.88C13.6083 576.849 12.141 578.595 10.1361 578.774C10.0176 578.783 9.90824 578.792 9.78976 578.792H9.79887ZM7.88506 558.919C6.03503 558.919 4.44017 557.531 4.2579 555.687L4.07563 553.879C3.88425 551.909 5.35152 550.163 7.35647 549.967C9.35232 549.77 11.1385 551.22 11.339 553.189L11.5213 554.989C11.7127 556.958 10.2454 558.704 8.24959 558.901C8.13111 558.91 8.01264 558.919 7.89416 558.919H7.88506ZM5.89832 539.045C4.04829 539.045 2.46256 537.666 2.27117 535.822L2.08891 534.023C1.88841 532.054 3.34656 530.299 5.35152 530.102C7.35648 529.914 9.1427 531.337 9.3432 533.307L9.52548 535.115C9.72597 537.085 8.26782 538.839 6.26287 539.036C6.14439 539.045 6.01679 539.054 5.89832 539.054V539.045ZM3.82958 519.154C1.98866 519.154 0.402925 517.784 0.211543 515.94L0.0201542 514.123C-0.189455 512.153 1.25958 510.39 3.26454 510.184C5.26949 509.96 7.06485 511.401 7.27446 513.371L7.46583 515.206C7.67544 517.175 6.21729 518.93 4.22145 519.136C4.09386 519.145 3.96628 519.154 3.83869 519.154H3.82958ZM3.78401 499.217C3.72021 499.217 3.64731 499.217 3.58351 499.217C1.56944 499.11 0.0292721 497.418 0.138633 495.449C0.175087 494.831 0.211536 494.213 0.24799 493.605C0.375578 491.626 2.10713 490.158 4.1212 490.257C6.12616 490.382 7.65722 492.083 7.52963 494.061C7.49318 494.652 7.45672 495.243 7.42026 495.834C7.3109 497.74 5.70694 499.217 3.78401 499.217ZM6.05325 479.46C5.84364 479.46 5.63404 479.442 5.42443 479.407C3.4377 479.066 2.11625 477.213 2.46256 475.262C2.57192 474.653 2.68128 474.044 2.79976 473.436C3.17341 471.493 5.07811 470.213 7.05573 470.571C9.03335 470.938 10.3366 472.809 9.96292 474.752C9.85356 475.325 9.74419 475.906 9.64394 476.488C9.33409 478.225 7.79391 479.451 6.05325 479.451V479.46ZM10.9107 460.16C10.5371 460.16 10.1543 460.106 9.78065 459.981C7.86683 459.363 6.81877 457.349 7.4476 455.469C7.6481 454.878 7.8486 454.287 8.04909 453.705C8.70526 451.834 10.774 450.832 12.6787 451.476C14.5834 452.112 15.595 454.153 14.948 456.024C14.7566 456.579 14.5652 457.134 14.3829 457.689C13.8817 459.202 12.4509 460.16 10.9198 460.16H10.9107ZM18.7027 441.817C18.1377 441.817 17.5635 441.692 17.0258 441.414C15.2396 440.501 14.5379 438.344 15.4674 436.589C15.7591 436.034 16.0598 435.488 16.3606 434.942C17.3175 433.205 19.5229 432.552 21.3 433.492C23.0772 434.432 23.7333 436.598 22.7764 438.344C22.4939 438.854 22.2205 439.373 21.938 439.892C21.2909 441.119 20.015 441.826 18.7027 441.826V441.817ZM29.5659 425.041C28.7913 425.041 28.0075 424.799 27.3422 424.298C25.7474 423.089 25.4466 420.843 26.677 419.276C27.0688 418.784 27.4607 418.291 27.8526 417.799C29.1103 416.25 31.3977 415.999 32.9743 417.226C34.551 418.461 34.8062 420.708 33.5576 422.257C33.1931 422.713 32.8194 423.17 32.4549 423.636C31.7349 424.549 30.6595 425.032 29.5659 425.032V425.041ZM43.3181 410.44C42.3247 410.44 41.3314 410.046 40.6114 409.259C39.2626 407.79 39.3811 405.526 40.8757 404.201C41.3496 403.78 41.8235 403.368 42.2974 402.956C43.8102 401.649 46.1159 401.802 47.4374 403.297C48.7588 404.792 48.613 407.047 47.0911 408.345C46.6445 408.73 46.198 409.115 45.7514 409.509C45.0497 410.127 44.1839 410.431 43.309 410.431L43.3181 410.44ZM59.4671 398.418C58.255 398.418 57.0794 397.827 56.3777 396.744C55.3023 395.07 55.8126 392.859 57.5168 391.802C58.0545 391.471 58.5922 391.14 59.1299 390.817C60.8432 389.779 63.0943 390.316 64.1423 391.999C65.1904 393.682 64.6527 395.893 62.9393 396.923C62.429 397.227 61.9277 397.54 61.4174 397.854C60.8159 398.23 60.1415 398.409 59.4762 398.409L59.4671 398.418ZM77.4115 389.134C75.9989 389.134 74.6592 388.32 74.0577 386.968C73.2649 385.151 74.1124 383.047 75.9624 382.259C76.5457 382.009 77.129 381.767 77.7031 381.534C79.5623 380.773 81.6948 381.642 82.4694 383.468C83.2441 385.294 82.3601 387.389 80.5009 388.15C79.9541 388.374 79.3982 388.606 78.8423 388.839C78.3684 389.036 77.8854 389.134 77.4024 389.134H77.4115ZM96.6044 382.644C94.9822 382.644 93.5058 381.579 93.0775 379.959C92.5671 378.043 93.7428 376.091 95.693 375.59C96.331 375.429 96.9416 375.277 97.534 375.134C99.4842 374.668 101.462 375.841 101.936 377.765C102.41 379.69 101.216 381.624 99.2564 382.089C98.7005 382.223 98.1172 382.367 97.5157 382.519C97.2059 382.6 96.896 382.635 96.5953 382.635L96.6044 382.644ZM116.718 380.353C114.713 380.353 113.081 378.759 113.072 376.781C113.072 374.802 114.695 373.2 116.709 373.191H118.568C120.573 373.191 122.204 374.775 122.213 376.745C122.222 378.723 120.6 380.335 118.586 380.344H116.718V380.353ZM136.986 379.887C135.054 379.887 133.441 378.392 133.35 376.467C133.259 374.489 134.808 372.815 136.822 372.725L138.645 372.636C140.659 372.546 142.372 374.05 142.472 376.029C142.573 378.007 141.032 379.69 139.018 379.789L137.159 379.878C137.105 379.878 137.041 379.878 136.986 379.878V379.887ZM157.209 378.473C155.359 378.473 153.773 377.094 153.582 375.25C153.381 373.28 154.839 371.526 156.844 371.329L158.667 371.15C160.663 370.944 162.458 372.376 162.668 374.346C162.877 376.315 161.419 378.07 159.414 378.276L157.564 378.464C157.446 378.473 157.318 378.482 157.2 378.482L157.209 378.473ZM177.313 375.921C175.554 375.921 174.005 374.668 173.722 372.913C173.403 370.962 174.752 369.127 176.739 368.804C177.34 368.706 177.933 368.607 178.534 368.509C180.521 368.178 182.398 369.494 182.735 371.436C183.073 373.388 181.733 375.232 179.755 375.563C179.145 375.662 178.525 375.769 177.905 375.868C177.705 375.903 177.513 375.912 177.322 375.912L177.313 375.921ZM197.18 371.982C195.54 371.982 194.045 370.89 193.644 369.252C193.161 367.327 194.364 365.394 196.315 364.919C196.907 364.776 197.49 364.633 198.073 364.49C200.024 364.006 202.01 365.161 202.503 367.077C202.995 368.992 201.819 370.944 199.869 371.427C199.267 371.58 198.657 371.723 198.046 371.875C197.754 371.947 197.463 371.982 197.18 371.982ZM216.61 366.316C215.116 366.316 213.712 365.403 213.174 363.935C212.5 362.072 213.484 360.022 215.38 359.36C215.954 359.154 216.519 358.957 217.084 358.751C218.971 358.071 221.067 359.02 221.759 360.882C222.452 362.735 221.477 364.794 219.59 365.474C219.007 365.68 218.424 365.895 217.831 366.101C217.43 366.244 217.011 366.307 216.601 366.307L216.61 366.316ZM235.238 358.501C233.907 358.501 232.632 357.784 231.984 356.549C231.073 354.786 231.784 352.628 233.579 351.733C234.117 351.464 234.646 351.196 235.165 350.918C236.942 349.987 239.148 350.659 240.095 352.413C241.034 354.159 240.36 356.325 238.574 357.256C238.018 357.543 237.462 357.829 236.888 358.116C236.359 358.384 235.794 358.51 235.238 358.51V358.501ZM252.444 348.018C251.341 348.018 250.248 347.525 249.528 346.594C248.316 345.019 248.635 342.772 250.248 341.581C250.722 341.232 251.196 340.874 251.651 340.516C253.237 339.299 255.525 339.567 256.773 341.125C258.013 342.682 257.739 344.929 256.153 346.156C255.652 346.541 255.151 346.917 254.641 347.302C253.984 347.785 253.21 348.027 252.453 348.027L252.444 348.018ZM267.181 334.411C266.351 334.411 265.522 334.133 264.838 333.569C263.298 332.298 263.098 330.033 264.392 328.52C264.775 328.073 265.148 327.634 265.504 327.186C266.761 325.647 269.058 325.396 270.625 326.631C272.193 327.867 272.448 330.123 271.191 331.662C270.79 332.146 270.389 332.638 269.969 333.131C269.249 333.972 268.22 334.402 267.181 334.402V334.411ZM277.98 317.626C277.488 317.626 276.987 317.527 276.504 317.312C274.663 316.507 273.833 314.394 274.654 312.586C274.891 312.049 275.128 311.529 275.337 311.01C276.103 309.184 278.235 308.316 280.094 309.068C281.954 309.82 282.847 311.914 282.072 313.741C281.826 314.313 281.58 314.904 281.306 315.495C280.705 316.829 279.374 317.626 277.971 317.626H277.98Z" fill="black"/>
<path d="M151.648 874.025C151.539 874.025 151.43 874.025 151.311 874.007C150.09 873.9 149.069 873.21 148.495 872.253C147.62 871.545 147.092 870.444 147.183 869.245C147.319 867.275 149.069 865.78 151.074 865.924L151.986 865.986C152.961 866.049 153.872 866.506 154.51 867.24C155.148 867.974 155.458 868.922 155.367 869.889L155.285 870.784C155.111 872.646 153.526 874.043 151.657 874.043L151.648 874.025Z" fill="black"/>
<path d="M128.811 1120.85C128.702 1120.85 128.592 1120.85 128.474 1120.83C126.469 1120.65 124.992 1118.91 125.175 1116.94L125.339 1115.21C125.521 1113.24 127.298 1111.79 129.303 1111.97C131.308 1112.15 132.784 1113.9 132.602 1115.86L132.438 1117.59C132.265 1119.45 130.679 1120.85 128.811 1120.85ZM130.57 1101.86C130.46 1101.86 130.351 1101.86 130.233 1101.85C128.228 1101.67 126.751 1099.92 126.934 1097.95L127.098 1096.22C127.28 1094.25 129.039 1092.79 131.062 1092.98C133.067 1093.16 134.543 1094.91 134.361 1096.88L134.197 1098.61C134.024 1100.47 132.438 1101.86 130.57 1101.86ZM132.329 1082.88C132.219 1082.88 132.11 1082.88 131.992 1082.86C129.987 1082.68 128.51 1080.93 128.692 1078.96L128.856 1077.24C129.039 1075.27 130.798 1073.81 132.821 1074C134.826 1074.18 136.302 1075.92 136.12 1077.89L135.956 1079.62C135.783 1081.48 134.197 1082.88 132.329 1082.88ZM134.088 1063.89C133.978 1063.89 133.869 1063.89 133.75 1063.87C131.745 1063.69 130.269 1061.95 130.451 1059.98L130.615 1058.25C130.798 1056.28 132.566 1054.82 134.58 1055.01C136.585 1055.19 138.061 1056.93 137.879 1058.9L137.715 1060.63C137.542 1062.49 135.956 1063.89 134.088 1063.89ZM135.846 1044.9C135.737 1044.9 135.628 1044.9 135.509 1044.88C133.504 1044.71 132.028 1042.96 132.21 1040.99L132.374 1039.26C132.557 1037.29 134.334 1035.83 136.339 1036.02C138.344 1036.2 139.82 1037.95 139.638 1039.92L139.474 1041.64C139.3 1043.51 137.715 1044.9 135.846 1044.9ZM137.605 1025.91C137.496 1025.91 137.387 1025.91 137.268 1025.9C135.263 1025.72 133.787 1023.97 133.969 1022L134.133 1020.28C134.315 1018.31 136.102 1016.86 138.098 1017.03C140.102 1017.21 141.579 1018.96 141.397 1020.93L141.233 1022.66C141.059 1024.52 139.474 1025.91 137.605 1025.91ZM139.364 1006.93C139.255 1006.93 139.146 1006.93 139.027 1006.91C137.022 1006.73 135.546 1004.98 135.728 1003.02L135.892 1001.29C136.074 999.318 137.842 997.859 139.856 998.047C141.861 998.226 143.338 999.972 143.155 1001.94L142.991 1003.67C142.818 1005.53 141.233 1006.93 139.364 1006.93ZM141.123 987.94C141.014 987.94 140.904 987.94 140.786 987.922C138.781 987.743 137.305 985.998 137.487 984.028L137.651 982.3C137.833 980.331 139.61 978.881 141.615 979.06C143.62 979.239 145.097 980.985 144.914 982.954L144.75 984.682C144.577 986.544 142.991 987.94 141.123 987.94ZM142.882 968.953C142.773 968.953 142.663 968.953 142.545 968.935C140.54 968.756 139.064 967.011 139.246 965.041L139.41 963.313C139.592 961.344 141.369 959.885 143.374 960.073C145.379 960.252 146.856 961.997 146.673 963.967L146.509 965.695C146.336 967.557 144.75 968.953 142.882 968.953ZM144.641 949.966C144.532 949.966 144.422 949.966 144.304 949.948C142.299 949.769 140.822 948.023 141.005 946.054L141.169 944.326C141.351 942.357 143.128 940.906 145.133 941.085C147.138 941.264 148.614 943.01 148.432 944.98L148.268 946.707C148.095 948.569 146.509 949.966 144.641 949.966ZM146.4 930.979C146.29 930.979 146.181 930.979 146.063 930.961C144.058 930.782 142.581 929.036 142.764 927.067L142.928 925.339C143.11 923.369 144.887 921.91 146.892 922.098C148.897 922.277 150.373 924.023 150.191 925.992L150.027 927.72C149.854 929.582 148.268 930.979 146.4 930.979ZM148.159 911.991C148.049 911.991 147.94 911.991 147.822 911.973C145.817 911.794 144.34 910.049 144.522 908.079L144.687 906.352C144.869 904.382 146.637 902.932 148.651 903.111C150.656 903.29 152.132 905.036 151.95 907.005L151.786 908.733C151.613 910.595 150.027 911.991 148.159 911.991ZM149.918 893.004C149.808 893.004 149.699 893.004 149.58 892.986C147.575 892.807 146.099 891.061 146.281 889.092L146.445 887.364C146.628 885.395 148.405 883.936 150.41 884.124C152.415 884.303 153.891 886.048 153.709 888.018L153.545 889.746C153.372 891.608 151.786 893.004 149.918 893.004Z" fill="black"/>
<path d="M614.359 1119.85C612.354 1119.85 610.723 1118.25 610.714 1116.28L610.695 1114.51C610.677 1112.53 612.29 1110.91 614.304 1110.89H614.341C616.337 1110.89 617.968 1112.48 617.986 1114.44L618.004 1116.24C618.013 1118.22 616.391 1119.83 614.377 1119.84H614.359V1119.85ZM613.867 1100.21C611.926 1100.21 610.313 1098.7 610.231 1096.78L610.149 1095C610.057 1093.03 611.616 1091.35 613.63 1091.27C615.617 1091.16 617.348 1092.71 617.43 1094.69L617.512 1096.48C617.594 1098.46 616.036 1100.13 614.022 1100.21C613.967 1100.21 613.922 1100.21 613.867 1100.21ZM612.7 1080.6C610.814 1080.6 609.21 1079.17 609.073 1077.29L608.936 1075.52C608.782 1073.55 610.285 1071.82 612.29 1071.67C614.295 1071.52 616.054 1072.99 616.209 1074.96L616.346 1076.75C616.501 1078.72 614.988 1080.44 612.983 1080.59C612.892 1080.59 612.801 1080.6 612.709 1080.6H612.7ZM610.878 1061.05C609.037 1061.05 607.46 1059.69 607.26 1057.85L607.059 1056.09C606.84 1054.12 608.28 1052.36 610.276 1052.13C612.272 1051.91 614.076 1053.33 614.304 1055.29L614.505 1057.08C614.723 1059.04 613.274 1060.81 611.27 1061.02C611.133 1061.04 611.005 1061.04 610.869 1061.04L610.878 1061.05ZM608.381 1041.58C606.594 1041.58 605.036 1040.29 604.781 1038.51L604.526 1036.75C604.234 1034.79 605.61 1032.98 607.597 1032.69C609.593 1032.4 611.443 1033.76 611.734 1035.71L611.999 1037.49C612.281 1039.45 610.905 1041.26 608.909 1041.54C608.736 1041.57 608.563 1041.58 608.39 1041.58H608.381ZM605.173 1022.21C603.441 1022.21 601.91 1021 601.591 1019.27L601.263 1017.53C600.898 1015.58 602.202 1013.71 604.179 1013.35C606.157 1013 608.062 1014.28 608.426 1016.22L608.754 1017.98C609.119 1019.92 607.806 1021.8 605.82 1022.14C605.601 1022.18 605.382 1022.21 605.163 1022.21H605.173ZM601.199 1002.98C599.531 1002.98 598.028 1001.85 597.645 1000.19L597.244 998.457C596.797 996.533 598.019 994.608 599.987 994.169C601.946 993.731 603.906 994.93 604.352 996.864L604.753 998.618C605.191 1000.55 603.961 1002.46 602.001 1002.9C601.728 1002.96 601.463 1002.99 601.199 1002.99V1002.98ZM596.387 983.928C594.783 983.928 593.316 982.881 592.869 981.287L592.396 979.586C591.858 977.68 592.988 975.71 594.929 975.182C596.87 974.654 598.875 975.773 599.413 977.671L599.896 979.407C600.425 981.314 599.276 983.284 597.335 983.803C597.016 983.892 596.688 983.928 596.378 983.928H596.387ZM590.664 965.129C589.133 965.129 587.702 964.171 587.201 962.658C587.019 962.103 586.827 961.548 586.645 960.993C586.007 959.113 587.037 957.09 588.951 956.463C590.865 955.837 592.924 956.848 593.562 958.728C593.753 959.292 593.945 959.865 594.136 960.438C594.765 962.318 593.717 964.341 591.803 964.95C591.43 965.066 591.047 965.129 590.673 965.129H590.664ZM583.938 946.67C582.48 946.67 581.104 945.801 580.539 944.387C580.32 943.841 580.102 943.295 579.883 942.749C579.136 940.914 580.056 938.828 581.924 938.094C583.792 937.36 585.916 938.264 586.663 940.099C586.891 940.654 587.11 941.218 587.338 941.782C588.067 943.626 587.146 945.703 585.269 946.419C584.831 946.589 584.385 946.661 583.947 946.661L583.938 946.67ZM576.092 928.631C574.716 928.631 573.403 927.862 572.783 926.563C572.528 926.035 572.273 925.498 572.018 924.97C571.152 923.18 571.927 921.049 573.749 920.199C575.572 919.348 577.741 920.109 578.607 921.9C578.871 922.446 579.136 922.992 579.391 923.538C580.238 925.328 579.455 927.459 577.623 928.3C577.121 928.524 576.602 928.64 576.083 928.64L576.092 928.631ZM567.015 911.157C565.739 911.157 564.499 910.495 563.825 909.322C563.533 908.812 563.242 908.301 562.95 907.791C561.957 906.072 562.576 903.888 564.326 902.912C566.076 901.937 568.3 902.545 569.293 904.264C569.594 904.792 569.894 905.311 570.195 905.84C571.179 907.567 570.551 909.752 568.792 910.71C568.227 911.014 567.616 911.166 567.015 911.166V911.157ZM556.589 894.426C555.413 894.426 554.265 893.871 553.563 892.841C553.235 892.358 552.898 891.874 552.561 891.391C551.422 889.762 551.85 887.533 553.518 886.414C555.176 885.295 557.446 885.715 558.585 887.354C558.931 887.855 559.277 888.356 559.624 888.858C560.745 890.496 560.298 892.725 558.63 893.826C558.011 894.238 557.3 894.435 556.598 894.435L556.589 894.426ZM544.714 878.67C543.657 878.67 542.609 878.223 541.889 877.354C541.515 876.907 541.132 876.45 540.759 876.002C539.474 874.481 539.683 872.225 541.233 870.962C542.782 869.7 545.079 869.906 546.364 871.428C546.755 871.894 547.147 872.359 547.539 872.825C548.815 874.355 548.578 876.611 547.02 877.865C546.345 878.411 545.525 878.67 544.714 878.67ZM531.326 864.15C530.397 864.15 529.467 863.801 528.756 863.112C528.337 862.7 527.918 862.297 527.499 861.894C526.059 860.515 526.022 858.251 527.426 856.827C528.829 855.404 531.135 855.377 532.584 856.756C533.022 857.176 533.468 857.597 533.896 858.027C535.327 859.423 535.336 861.688 533.915 863.094C533.204 863.801 532.265 864.15 531.326 864.15ZM516.426 851.152C515.633 851.152 514.84 850.901 514.166 850.382C513.701 850.024 513.236 849.666 512.771 849.317C511.177 848.108 510.885 845.861 512.115 844.294C513.346 842.728 515.633 842.441 517.228 843.65C517.72 844.017 518.203 844.393 518.686 844.769C520.263 845.995 520.536 848.251 519.288 849.8C518.568 850.695 517.501 851.161 516.426 851.161V851.152Z" fill="black"/>
<path d="M500.185 840.033C499.538 840.033 498.882 839.863 498.289 839.505L497.533 839.058C496.13 838.225 495.464 836.578 495.902 835.029C496.339 833.481 497.779 832.406 499.41 832.406H500.322C502.336 832.406 503.967 834.009 503.967 835.987C503.967 836.408 503.894 836.811 503.757 837.187C503.675 837.58 503.521 837.965 503.302 838.323C502.618 839.425 501.415 840.033 500.185 840.033Z" fill="black"/>
<path d="M518.801 839.561H518.555C516.541 839.561 514.91 837.959 514.91 835.98C514.91 834.002 516.541 832.399 518.555 832.399H518.801C519.293 832.399 519.776 832.399 520.259 832.373C522.273 832.31 523.959 833.859 524.023 835.837C524.087 837.815 522.51 839.471 520.496 839.534C519.931 839.552 519.366 839.561 518.801 839.561ZM538.113 835.792C536.682 835.792 535.324 834.96 534.741 833.581C533.966 831.755 534.85 829.66 536.709 828.899C537.229 828.684 537.748 828.469 538.258 828.237C540.081 827.404 542.25 828.201 543.088 829.991C543.927 831.791 543.125 833.912 541.293 834.736C540.701 835.004 540.099 835.264 539.498 835.506C539.042 835.694 538.568 835.783 538.103 835.783L538.113 835.792ZM554.653 824.862C553.724 824.862 552.803 824.522 552.093 823.823C550.662 822.436 550.653 820.162 552.065 818.757C552.466 818.363 552.849 817.96 553.232 817.557C554.599 816.098 556.904 816.008 558.381 817.351C559.857 818.694 559.957 820.959 558.59 822.409C558.153 822.883 557.697 823.34 557.242 823.797C556.531 824.504 555.592 824.862 554.653 824.862ZM565.59 808.507C565.134 808.507 564.678 808.426 564.232 808.247C562.363 807.513 561.461 805.427 562.208 803.592C562.418 803.082 562.619 802.562 562.81 802.043C563.493 800.181 565.58 799.214 567.476 799.886C569.372 800.557 570.356 802.607 569.672 804.469C569.454 805.078 569.217 805.678 568.98 806.269C568.406 807.665 567.039 808.515 565.599 808.515L565.59 808.507ZM570.511 789.43C570.256 789.43 570 789.403 569.745 789.349C567.777 788.937 566.519 787.031 566.947 785.097L567.33 783.342C567.749 781.409 569.691 780.173 571.659 780.594C573.628 781.006 574.885 782.913 574.457 784.846L574.074 786.601C573.71 788.284 572.197 789.43 570.511 789.43ZM574.721 770.165C574.466 770.165 574.211 770.138 573.956 770.084C571.987 769.673 570.73 767.766 571.158 765.832L571.541 764.078C571.96 762.144 573.901 760.918 575.87 761.329C577.838 761.741 579.096 763.648 578.667 765.582L578.285 767.336C577.92 769.019 576.407 770.165 574.721 770.165ZM578.932 750.9C578.676 750.9 578.421 750.873 578.166 750.82C576.198 750.408 574.94 748.501 575.368 746.567L575.751 744.813C576.17 742.879 578.111 741.653 580.08 742.065C582.048 742.476 583.306 744.383 582.878 746.317L582.495 748.071C582.13 749.754 580.618 750.9 578.932 750.9ZM583.142 731.635C582.887 731.635 582.632 731.609 582.377 731.555C580.408 731.143 579.15 729.236 579.579 727.303L579.961 725.548C580.381 723.614 582.322 722.379 584.29 722.8C586.259 723.212 587.517 725.118 587.088 727.052L586.705 728.807C586.341 730.49 584.828 731.635 583.142 731.635ZM587.352 712.371C587.097 712.371 586.842 712.344 586.587 712.29C584.618 711.878 583.361 709.972 583.789 708.038L584.172 706.283C584.591 704.35 586.532 703.114 588.501 703.535C590.469 703.947 591.727 705.854 591.299 707.787L590.916 709.542C590.551 711.225 589.038 712.371 587.352 712.371ZM591.563 693.106C591.308 693.106 591.053 693.079 590.797 693.025C588.829 692.614 587.571 690.707 588 688.773L588.382 687.019C588.802 685.085 590.743 683.85 592.711 684.27C594.68 684.682 595.937 686.589 595.509 688.523L595.126 690.277C594.762 691.96 593.249 693.106 591.563 693.106ZM595.773 673.841C595.518 673.841 595.263 673.814 595.008 673.761C593.039 673.349 591.782 671.442 592.21 669.508L592.593 667.754C593.012 665.82 594.953 664.594 596.922 665.006C598.89 665.417 600.148 667.324 599.719 669.258L599.337 671.012C598.972 672.695 597.459 673.841 595.773 673.841ZM599.984 654.576C599.729 654.576 599.473 654.55 599.218 654.496C597.25 654.084 595.992 652.177 596.42 650.244L596.803 648.489C597.222 646.555 599.163 645.329 601.132 645.741C603.1 646.153 604.358 648.059 603.93 649.993L603.547 651.748C603.183 653.431 601.67 654.576 599.984 654.576ZM604.194 635.312C603.939 635.312 603.684 635.285 603.429 635.231C601.46 634.819 600.202 632.913 600.631 630.979L601.014 629.224C601.433 627.291 603.374 626.055 605.342 626.476C607.311 626.888 608.569 628.795 608.14 630.728L607.757 632.483C607.393 634.166 605.88 635.312 604.194 635.312ZM608.414 616.038C608.177 616.038 607.94 616.02 607.703 615.966C605.725 615.581 604.44 613.702 604.832 611.759C604.932 611.267 605.042 610.703 605.151 610.067C605.497 608.115 607.384 606.817 609.371 607.158C611.357 607.498 612.679 609.36 612.332 611.302C612.205 611.992 612.095 612.6 611.986 613.138C611.64 614.847 610.118 616.029 608.414 616.029V616.038ZM610.555 596.46C610.555 596.46 610.473 596.46 610.428 596.46C608.414 596.388 606.837 594.732 606.91 592.763C606.928 592.19 606.946 591.608 606.955 591.017C607.001 589.039 608.669 587.454 610.683 587.517C612.697 587.562 614.292 589.2 614.246 591.169C614.228 591.796 614.219 592.405 614.192 593.004C614.128 594.938 612.506 596.46 610.546 596.46H610.555ZM609.881 576.765C608.031 576.765 606.445 575.387 606.254 573.543C606.199 572.97 606.135 572.388 606.062 571.806C605.835 569.837 607.274 568.064 609.27 567.849C611.266 567.616 613.08 569.04 613.298 571C613.371 571.618 613.435 572.227 613.499 572.827C613.699 574.796 612.241 576.551 610.236 576.748C610.109 576.756 609.99 576.765 609.872 576.765H609.881ZM606.536 557.348C604.887 557.348 603.401 556.247 602.991 554.6C602.854 554.036 602.709 553.472 602.563 552.899C602.071 550.984 603.246 549.032 605.197 548.549C607.147 548.065 609.134 549.22 609.626 551.136C609.781 551.736 609.926 552.326 610.072 552.917C610.546 554.842 609.334 556.776 607.384 557.232C607.101 557.304 606.81 557.331 606.527 557.331L606.536 557.348ZM600.494 538.576C599.045 538.576 597.669 537.717 597.104 536.311C596.885 535.774 596.666 535.237 596.439 534.691C595.673 532.865 596.566 530.77 598.425 530.018C600.284 529.266 602.417 530.143 603.183 531.97C603.419 532.542 603.656 533.106 603.884 533.67C604.622 535.506 603.711 537.591 601.843 538.316C601.405 538.487 600.95 538.567 600.503 538.567L600.494 538.576ZM591.8 520.842C590.533 520.842 589.303 520.198 588.637 519.043C588.346 518.541 588.045 518.04 587.744 517.53C586.724 515.829 587.298 513.627 589.029 512.624C590.761 511.622 593.003 512.186 594.024 513.886C594.342 514.415 594.652 514.943 594.962 515.471C595.965 517.19 595.354 519.374 593.613 520.359C593.039 520.681 592.42 520.833 591.809 520.833L591.8 520.842ZM580.645 504.487C579.56 504.487 578.476 504.012 577.765 503.099C577.401 502.643 577.036 502.186 576.662 501.721C575.405 500.172 575.669 497.916 577.246 496.69C578.822 495.463 581.119 495.714 582.367 497.263C582.759 497.746 583.142 498.22 583.525 498.704C584.755 500.27 584.473 502.517 582.878 503.726C582.213 504.236 581.429 504.478 580.645 504.478V504.487ZM567.339 489.761C566.41 489.761 565.48 489.412 564.769 488.722C564.35 488.311 563.922 487.908 563.493 487.496C562.044 486.117 562.008 483.852 563.411 482.429C564.815 481.015 567.121 480.97 568.57 482.348C569.016 482.778 569.463 483.199 569.9 483.629C571.331 485.016 571.34 487.29 569.928 488.695C569.217 489.403 568.278 489.752 567.339 489.752V489.761ZM552.275 476.78C551.491 476.78 550.698 476.53 550.033 476.028C549.559 475.67 549.094 475.312 548.611 474.954C547.016 473.755 546.707 471.508 547.937 469.932C549.158 468.365 551.446 468.061 553.049 469.27C553.542 469.637 554.034 470.013 554.517 470.38C556.102 471.597 556.385 473.844 555.155 475.402C554.435 476.306 553.359 476.78 552.275 476.78ZM535.834 465.519C535.178 465.519 534.513 465.34 533.911 464.973C533.401 464.659 532.891 464.355 532.38 464.042C530.667 463.003 530.129 460.801 531.177 459.118C532.234 457.435 534.476 456.907 536.19 457.945C536.718 458.268 537.238 458.581 537.766 458.903C539.47 459.951 539.999 462.162 538.933 463.836C538.24 464.928 537.055 465.519 535.834 465.519ZM518.382 455.824C517.79 455.824 517.188 455.68 516.632 455.385C516.095 455.098 515.557 454.803 515.01 454.499C513.251 453.532 512.622 451.357 513.607 449.629C514.591 447.901 516.805 447.283 518.564 448.25C519.093 448.537 519.612 448.823 520.132 449.101C521.9 450.05 522.547 452.225 521.581 453.962C520.916 455.152 519.667 455.824 518.382 455.824ZM501.203 445.609C500.51 445.609 499.818 445.421 499.198 445.019C498.688 444.687 498.177 444.356 497.658 444.016C495.981 442.915 495.535 440.695 496.656 439.047C497.776 437.4 500.037 436.962 501.714 438.063C502.215 438.394 502.716 438.716 503.217 439.047C504.894 440.14 505.359 442.36 504.247 444.007C503.545 445.054 502.388 445.618 501.203 445.618V445.609ZM484.835 434.195C484.07 434.195 483.295 433.954 482.63 433.461C482.138 433.094 481.655 432.727 481.163 432.36C479.568 431.152 479.267 428.905 480.497 427.338C481.728 425.772 484.015 425.476 485.61 426.685C486.084 427.043 486.567 427.41 487.041 427.759C488.645 428.959 488.955 431.206 487.733 432.781C487.014 433.712 485.929 434.195 484.826 434.195H484.835ZM469.279 421.734C468.431 421.734 467.575 421.439 466.882 420.848C466.417 420.454 465.952 420.051 465.497 419.648C463.993 418.341 463.847 416.077 465.187 414.591C466.517 413.114 468.823 412.97 470.336 414.286C470.782 414.68 471.238 415.065 471.685 415.459C473.198 416.757 473.352 419.022 472.031 420.508C471.311 421.314 470.299 421.734 469.288 421.734H469.279ZM454.67 408.235C453.731 408.235 452.783 407.877 452.073 407.16C451.644 406.731 451.216 406.301 450.788 405.862C449.384 404.448 449.421 402.174 450.86 400.796C452.31 399.417 454.615 399.453 456.019 400.867C456.438 401.288 456.857 401.709 457.276 402.129C458.689 403.544 458.671 405.809 457.231 407.196C456.52 407.886 455.599 408.226 454.679 408.226L454.67 408.235ZM441.228 393.607C440.18 393.607 439.132 393.159 438.412 392.3C438.02 391.826 437.628 391.36 437.236 390.886C435.969 389.346 436.215 387.09 437.783 385.846C439.35 384.601 441.647 384.843 442.904 386.383C443.278 386.839 443.661 387.296 444.044 387.752C445.32 389.283 445.101 391.539 443.542 392.792C442.859 393.338 442.039 393.607 441.228 393.607ZM429.316 377.744C428.122 377.744 426.956 377.171 426.263 376.124C425.926 375.613 425.589 375.094 425.252 374.584C424.167 372.919 424.668 370.699 426.373 369.642C428.068 368.577 430.328 369.07 431.403 370.744C431.722 371.236 432.041 371.728 432.369 372.212C433.472 373.868 432.998 376.088 431.312 377.171C430.702 377.565 430.009 377.753 429.325 377.753L429.316 377.744ZM419.51 360.565C418.143 360.565 416.831 359.804 416.211 358.506C415.947 357.951 415.683 357.387 415.427 356.832C414.598 355.033 415.427 352.911 417.259 352.096C419.1 351.282 421.251 352.096 422.08 353.896C422.326 354.424 422.572 354.952 422.818 355.471C423.675 357.262 422.891 359.392 421.06 360.234C420.558 360.467 420.03 360.574 419.519 360.574L419.51 360.565ZM412.621 342.079C411.007 342.079 409.522 341.014 409.094 339.403C408.93 338.803 408.775 338.203 408.629 337.594C408.155 335.67 409.358 333.736 411.317 333.27C413.277 332.814 415.245 333.987 415.719 335.911C415.856 336.466 416.002 337.03 416.147 337.585C416.658 339.501 415.491 341.453 413.55 341.954C413.24 342.034 412.93 342.07 412.621 342.07V342.079Z" fill="black"/>
<path d="M409.659 322.585C407.7 322.585 406.087 321.064 406.014 319.121C406.005 318.808 405.995 318.494 405.986 318.181C405.95 316.364 407.299 314.806 409.13 314.556C409.167 314.556 409.404 314.511 409.805 314.439C411.782 314.045 413.696 315.308 414.097 317.241C414.371 318.566 413.851 319.873 412.867 320.688C412.275 321.78 411.117 322.532 409.778 322.576C409.732 322.576 409.696 322.576 409.65 322.576L409.659 322.585Z" fill="black"/>
<path d="M427.449 315.024C426.164 315.024 424.915 314.352 424.25 313.171C423.275 311.443 423.922 309.259 425.681 308.31C426.182 308.041 426.683 307.755 427.193 307.468C428.934 306.474 431.167 307.056 432.178 308.766C433.19 310.476 432.598 312.669 430.857 313.663C430.301 313.985 429.745 314.29 429.198 314.585C428.642 314.889 428.032 315.033 427.439 315.033L427.449 315.024ZM443.762 303.655C442.75 303.655 441.738 303.243 441.018 302.437C439.688 300.951 439.843 298.686 441.356 297.388C441.793 297.012 442.231 296.627 442.668 296.233C444.154 294.9 446.468 295.007 447.817 296.475C449.175 297.934 449.066 300.208 447.571 301.533C447.097 301.954 446.632 302.365 446.168 302.768C445.475 303.368 444.618 303.655 443.762 303.655ZM457.541 289.403C456.739 289.403 455.937 289.143 455.263 288.615C453.695 287.38 453.44 285.124 454.698 283.584C455.062 283.137 455.427 282.68 455.801 282.214C457.04 280.657 459.327 280.379 460.913 281.588C462.499 282.805 462.791 285.052 461.551 286.61C461.168 287.093 460.776 287.577 460.394 288.051C459.674 288.937 458.617 289.394 457.55 289.394L457.541 289.403ZM265.512 289.313C264.819 289.313 264.118 289.116 263.498 288.714C262.96 288.365 262.432 288.006 261.912 287.648C260.263 286.511 259.871 284.273 261.028 282.662C262.185 281.042 264.464 280.657 266.104 281.794C266.569 282.116 267.043 282.438 267.526 282.752C269.203 283.844 269.658 286.064 268.547 287.711C267.845 288.749 266.688 289.313 265.503 289.313H265.512ZM250.639 276.234C249.6 276.234 248.579 275.805 247.85 274.963C247.44 274.489 247.039 274.005 246.638 273.522C245.371 271.982 245.617 269.726 247.176 268.482C248.734 267.238 251.04 267.479 252.306 269.01C252.671 269.458 253.045 269.896 253.418 270.326C254.722 271.839 254.53 274.095 252.99 275.375C252.306 275.948 251.468 276.226 250.639 276.226V276.234ZM468.887 273.2C468.259 273.2 467.621 273.039 467.037 272.699C465.306 271.696 464.732 269.494 465.752 267.793C466.053 267.291 466.354 266.79 466.655 266.28C467.657 264.57 469.89 263.979 471.631 264.973C473.371 265.958 473.973 268.151 472.961 269.861C472.651 270.389 472.332 270.917 472.022 271.436C471.339 272.564 470.127 273.191 468.878 273.191L468.887 273.2ZM239.621 259.843C238.299 259.843 237.023 259.136 236.376 257.901C236.094 257.355 235.811 256.8 235.529 256.245C234.636 254.472 235.383 252.324 237.187 251.446C238.992 250.578 241.179 251.303 242.072 253.076C242.327 253.595 242.592 254.105 242.865 254.615C243.785 256.37 243.084 258.536 241.288 259.441C240.76 259.709 240.186 259.834 239.621 259.834V259.843ZM478.056 255.708C477.554 255.708 477.053 255.609 476.57 255.394C474.729 254.589 473.909 252.467 474.729 250.659C474.975 250.13 475.212 249.593 475.449 249.056C476.251 247.239 478.402 246.415 480.243 247.203C482.093 247.991 482.931 250.104 482.129 251.912C481.883 252.476 481.628 253.031 481.382 253.586C480.78 254.92 479.45 255.708 478.056 255.708ZM232.075 241.626C230.525 241.626 229.085 240.65 228.602 239.119C228.411 238.538 228.229 237.956 228.056 237.365C227.472 235.476 228.566 233.471 230.489 232.898C232.421 232.325 234.453 233.399 235.037 235.288C235.21 235.843 235.383 236.398 235.565 236.953C236.167 238.842 235.109 240.847 233.187 241.447C232.822 241.563 232.448 241.617 232.093 241.617L232.075 241.626ZM485.337 237.383C484.945 237.383 484.553 237.32 484.171 237.195C482.266 236.559 481.245 234.527 481.892 232.656C482.084 232.101 482.275 231.546 482.466 230.982C483.095 229.102 485.164 228.082 487.069 228.708C488.983 229.326 490.012 231.358 489.384 233.229C489.192 233.811 488.992 234.384 488.8 234.948C488.29 236.443 486.868 237.383 485.346 237.383H485.337ZM227.29 222.513C225.568 222.513 224.028 221.305 223.709 219.577C223.599 218.977 223.49 218.378 223.38 217.778C223.034 215.826 224.365 213.973 226.351 213.642C228.329 213.302 230.225 214.609 230.562 216.56C230.662 217.142 230.771 217.715 230.881 218.288C231.245 220.231 229.933 222.102 227.955 222.46C227.737 222.496 227.509 222.522 227.29 222.522V222.513ZM491.024 218.512C490.723 218.512 490.422 218.476 490.113 218.395C488.162 217.903 486.987 215.952 487.488 214.036C487.634 213.472 487.78 212.899 487.925 212.326C488.408 210.41 490.386 209.238 492.345 209.712C494.296 210.187 495.49 212.129 495.007 214.054C494.861 214.645 494.706 215.227 494.551 215.808C494.132 217.429 492.646 218.503 491.024 218.503V218.512ZM224.647 202.989C222.779 202.989 221.184 201.584 221.02 199.713C220.965 199.113 220.92 198.504 220.865 197.904C220.701 195.935 222.205 194.207 224.21 194.055C226.215 193.903 227.974 195.371 228.129 197.34C228.174 197.931 228.229 198.513 228.274 199.104C228.448 201.073 226.962 202.81 224.957 202.98C224.848 202.98 224.747 202.989 224.638 202.989H224.647ZM495.344 199.301C495.116 199.301 494.888 199.283 494.66 199.238C492.683 198.871 491.379 197 491.753 195.058C491.862 194.476 491.972 193.903 492.081 193.312C492.446 191.369 494.341 190.071 496.328 190.438C498.306 190.796 499.618 192.658 499.253 194.61C499.144 195.21 499.035 195.801 498.916 196.391C498.588 198.11 497.057 199.31 495.335 199.31L495.344 199.301ZM223.699 183.321C221.704 183.321 220.072 181.746 220.054 179.776C220.054 179.168 220.045 178.568 220.045 177.968C220.045 175.99 221.658 174.378 223.672 174.369H223.69C225.695 174.369 227.327 175.963 227.336 177.932C227.336 178.523 227.336 179.114 227.345 179.705C227.363 181.683 225.75 183.304 223.736 183.321H223.699ZM498.169 179.812C498.06 179.812 497.95 179.812 497.841 179.794C495.836 179.615 494.359 177.879 494.533 175.909C494.587 175.327 494.633 174.745 494.688 174.155C494.852 172.185 496.601 170.708 498.615 170.869C500.62 171.03 502.115 172.758 501.96 174.728C501.914 175.336 501.86 175.936 501.805 176.545C501.632 178.407 500.046 179.803 498.178 179.803L498.169 179.812ZM224.155 163.636C224.091 163.636 224.018 163.636 223.955 163.636C221.941 163.529 220.4 161.837 220.51 159.867C220.546 159.258 220.583 158.659 220.619 158.059C220.738 156.08 222.469 154.577 224.474 154.702C226.488 154.818 228.01 156.519 227.892 158.489C227.855 159.079 227.819 159.661 227.791 160.252C227.682 162.159 226.078 163.636 224.155 163.636ZM498.98 160.145C496.975 160.145 495.344 158.551 495.335 156.582C495.335 156 495.326 155.409 495.316 154.818C495.289 152.84 496.893 151.22 498.907 151.184H498.962C500.948 151.184 502.58 152.75 502.607 154.711C502.607 155.32 502.625 155.928 502.625 156.528C502.634 158.506 501.012 160.118 498.998 160.127H498.98V160.145ZM225.859 144.013C225.713 144.013 225.577 144.013 225.431 143.986C223.435 143.754 222.004 141.981 222.232 140.012C222.305 139.403 222.378 138.812 222.451 138.212C222.697 136.252 224.52 134.855 226.515 135.097C228.511 135.339 229.933 137.12 229.687 139.09C229.614 139.671 229.541 140.253 229.477 140.844C229.259 142.67 227.682 144.013 225.859 144.013ZM497.932 140.477C496.082 140.477 494.496 139.098 494.305 137.245C494.25 136.664 494.186 136.082 494.123 135.5C493.904 133.53 495.353 131.767 497.358 131.561C499.363 131.355 501.158 132.769 501.368 134.739C501.432 135.348 501.495 135.947 501.559 136.556C501.76 138.526 500.292 140.28 498.287 140.468C498.169 140.477 498.05 140.486 497.923 140.486L497.932 140.477ZM228.858 124.551C228.63 124.551 228.402 124.534 228.165 124.489C226.187 124.113 224.893 122.242 225.276 120.299C225.385 119.744 225.495 119.198 225.604 118.661L225.641 118.491C226.042 116.548 227.974 115.304 229.942 115.707C231.911 116.101 233.187 117.999 232.776 119.932L232.758 120.04C232.649 120.577 232.539 121.105 232.439 121.642C232.102 123.352 230.58 124.551 228.867 124.551H228.858ZM495.034 121.015C493.33 121.015 491.799 119.834 491.461 118.124C491.343 117.551 491.234 116.978 491.106 116.405C490.696 114.471 491.972 112.574 493.94 112.18C495.918 111.786 497.841 113.03 498.242 114.964C498.369 115.564 498.488 116.154 498.606 116.745C498.998 118.688 497.704 120.568 495.727 120.944C495.49 120.989 495.253 121.015 495.025 121.015H495.034ZM233.715 105.457C233.36 105.457 232.986 105.403 232.631 105.296C230.708 104.705 229.632 102.7 230.234 100.811C230.416 100.229 230.607 99.6469 230.799 99.065C231.419 97.1851 233.478 96.1467 235.392 96.7644C237.306 97.3731 238.354 99.3963 237.734 101.276C237.552 101.831 237.37 102.386 237.196 102.941C236.713 104.472 235.273 105.457 233.715 105.457ZM490.158 101.93C488.6 101.93 487.16 100.945 486.677 99.4052C486.504 98.8502 486.321 98.2862 486.139 97.7312C485.519 95.8512 486.577 93.8281 488.49 93.2283C490.404 92.6285 492.464 93.658 493.074 95.5379C493.266 96.1198 493.448 96.7017 493.63 97.2836C494.223 99.1724 493.147 101.178 491.224 101.76C490.869 101.867 490.504 101.921 490.14 101.921L490.158 101.93ZM240.833 87.0604C240.331 87.0604 239.821 86.9529 239.329 86.7381C237.497 85.9234 236.686 83.8018 237.515 81.9935C237.771 81.4385 238.035 80.8835 238.299 80.3285C239.156 78.538 241.325 77.7682 243.147 78.6096C244.97 79.4511 245.754 81.5817 244.906 83.3721C244.651 83.9003 244.405 84.4285 244.159 84.9566C243.549 86.2726 242.227 87.0604 240.842 87.0604H240.833ZM483.095 83.5154C481.701 83.5154 480.379 82.7276 479.769 81.4027C479.523 80.8745 479.277 80.3374 479.031 79.8092C478.183 78.0188 478.976 75.8882 480.808 75.0557C482.63 74.2232 484.799 75.002 485.647 76.8014C485.911 77.3564 486.166 77.9114 486.422 78.4664C487.251 80.2658 486.422 82.3874 484.59 83.202C484.107 83.4169 483.596 83.5154 483.095 83.5154ZM250.329 69.7472C249.664 69.7472 248.989 69.5681 248.379 69.1921C246.674 68.1358 246.173 65.9246 247.249 64.2506C247.586 63.7314 247.923 63.2122 248.269 62.7019C249.372 61.0458 251.632 60.5803 253.318 61.6635C255.004 62.7467 255.478 64.9668 254.375 66.6229C254.047 67.1063 253.728 67.5987 253.409 68.091C252.717 69.1653 251.532 69.7561 250.329 69.7561V69.7472ZM473.645 66.1753C472.432 66.1753 471.257 65.5845 470.564 64.5102C470.245 64.0268 469.935 63.5344 469.607 63.051C468.505 61.3949 468.979 59.1748 470.665 58.0916C472.351 57.0084 474.611 57.4739 475.713 59.13C476.06 59.6403 476.397 60.1595 476.725 60.6788C477.8 62.3528 477.299 64.5639 475.595 65.6203C474.993 65.9962 474.319 66.1753 473.645 66.1753ZM262.295 53.9647C261.447 53.9647 260.591 53.6693 259.898 53.0785C258.385 51.7804 258.23 49.5156 259.552 48.0295C259.962 47.564 260.381 47.1075 260.8 46.6509C262.149 45.1828 264.455 45.0664 265.949 46.3824C267.444 47.7073 267.562 49.9721 266.223 51.4403C265.831 51.87 265.439 52.2997 265.047 52.7383C264.327 53.544 263.316 53.9647 262.304 53.9647H262.295ZM461.633 50.4645C460.631 50.4645 459.628 50.0617 458.908 49.2649C458.516 48.8352 458.124 48.4055 457.723 47.9758C456.366 46.5166 456.466 44.2518 457.942 42.9179C459.428 41.5751 461.733 41.6736 463.091 43.1328C463.51 43.5893 463.93 44.0369 464.349 44.5024C465.689 45.9795 465.552 48.2444 464.048 49.5603C463.356 50.1691 462.49 50.4645 461.624 50.4645H461.633ZM276.676 40.286C275.619 40.286 274.571 39.8384 273.851 38.9701C272.575 37.4393 272.803 35.1834 274.361 33.9301C274.844 33.5452 275.336 33.1513 275.828 32.7753C277.405 31.5489 279.702 31.8085 280.95 33.3661C282.199 34.9148 281.934 37.1707 280.349 38.3972C279.884 38.7552 279.428 39.1223 278.972 39.4804C278.298 40.0264 277.478 40.286 276.667 40.286H276.676ZM447.061 37.0006C446.277 37.0006 445.484 36.75 444.819 36.2397C444.363 35.8817 443.898 35.5325 443.424 35.1923C441.82 34.0017 441.492 31.7548 442.704 30.1792C443.917 28.6036 446.204 28.2903 447.808 29.472C448.309 29.848 448.811 30.224 449.303 30.5999C450.888 31.8174 451.171 34.0733 449.922 35.631C449.202 36.5351 448.136 37.0006 447.052 37.0006H447.061ZM293.189 29.1945C291.914 29.1945 290.683 28.541 290.009 27.3772C289.015 25.6584 289.635 23.4741 291.385 22.4984C291.932 22.194 292.479 21.8986 293.025 21.6032C294.793 20.6542 297.008 21.2988 297.974 23.0355C298.94 24.7722 298.284 26.9475 296.516 27.8964C295.996 28.174 295.486 28.4515 294.976 28.7379C294.411 29.0513 293.791 29.2034 293.189 29.2034V29.1945ZM430.237 26.3836C429.672 26.3836 429.098 26.2493 428.56 25.9807C428.041 25.7121 427.512 25.4525 426.984 25.1929C425.179 24.3067 424.45 22.1582 425.352 20.3857C426.255 18.6132 428.442 17.897 430.246 18.7833C430.811 19.0608 431.367 19.3383 431.923 19.6248C433.71 20.5379 434.402 22.6953 433.473 24.4499C432.826 25.6763 431.55 26.3836 430.237 26.3836ZM311.362 20.9855C309.876 20.9855 308.473 20.0813 307.935 18.6311C307.242 16.7691 308.217 14.7191 310.113 14.0387C310.696 13.8328 311.28 13.6269 311.872 13.421C313.777 12.7675 315.855 13.7522 316.52 15.6232C317.185 17.4942 316.183 19.5353 314.278 20.1888C313.722 20.3767 313.166 20.5737 312.61 20.7706C312.2 20.9228 311.772 20.9855 311.362 20.9855ZM411.746 18.9176C411.382 18.9176 411.017 18.8638 410.652 18.7564C410.087 18.5863 409.522 18.4162 408.957 18.2462C407.025 17.6822 405.932 15.6859 406.506 13.788C407.08 11.8902 409.112 10.816 411.044 11.38C411.646 11.559 412.238 11.738 412.831 11.9171C414.754 12.5079 415.82 14.5132 415.218 16.402C414.726 17.9328 413.295 18.9176 411.737 18.9176H411.746ZM330.618 15.668C328.923 15.668 327.401 14.4953 327.055 12.8033C326.654 10.8607 327.921 8.97187 329.898 8.57798C330.509 8.45265 331.12 8.33627 331.73 8.21989C333.708 7.8439 335.622 9.11509 335.995 11.0577C336.378 13.0003 335.084 14.8802 333.106 15.2472C332.523 15.3547 331.94 15.471 331.366 15.5874C331.12 15.6411 330.873 15.659 330.637 15.659L330.618 15.668ZM392.252 14.54C392.07 14.54 391.888 14.5311 391.706 14.4953C391.122 14.4057 390.53 14.3252 389.947 14.2446C387.951 13.9761 386.557 12.1677 386.839 10.2072C387.112 8.24675 388.953 6.86813 390.949 7.1546C391.569 7.23517 392.18 7.32469 392.79 7.41421C394.777 7.70963 396.153 9.53585 395.852 11.4874C395.579 13.2599 394.03 14.54 392.252 14.54ZM350.449 13.0092C348.554 13.0092 346.959 11.5769 346.822 9.68802C346.676 7.71858 348.18 5.99979 350.194 5.85656C350.814 5.8118 351.424 5.76704 352.053 5.73123C354.067 5.6238 355.79 7.10984 355.917 9.07929C356.045 11.0487 354.514 12.7496 352.509 12.8749C351.916 12.9107 351.324 12.9466 350.732 12.9913C350.641 12.9913 350.549 13.0003 350.458 13.0003L350.449 13.0092ZM372.294 12.7317C372.239 12.7317 372.185 12.7317 372.13 12.7317C371.529 12.7049 370.936 12.687 370.344 12.6601C368.33 12.5885 366.762 10.9324 366.826 8.95396C366.899 6.97557 368.603 5.42686 370.599 5.49848C371.21 5.51638 371.829 5.54324 372.449 5.5701C374.463 5.65962 376.021 7.32469 375.93 9.30309C375.848 11.2278 374.235 12.7317 372.294 12.7317Z" fill="black"/>
<path d="M94.6013 528.014C94.3826 528.014 94.1547 527.996 93.9269 527.952C91.9493 527.585 90.646 525.723 91.0106 523.771C91.1291 523.127 91.202 522.795 91.202 522.795C91.6303 520.862 93.5715 519.626 95.54 520.056C97.5085 520.477 98.757 522.375 98.3287 524.308C98.3287 524.308 98.2649 524.595 98.1738 525.087C97.8457 526.806 96.3146 528.014 94.5922 528.014H94.6013Z" fill="black"/>
<path d="M152.862 854.282C152.817 854.282 152.762 854.282 152.716 854.282C150.702 854.202 149.144 852.537 149.217 850.558L149.29 848.786C149.363 846.807 151.04 845.286 153.063 845.339C155.077 845.411 156.644 847.076 156.571 849.045L156.499 850.845C156.417 852.77 154.803 854.282 152.862 854.282ZM153.236 834.588C151.231 834.588 149.6 832.994 149.591 831.025V829.253C149.563 827.274 151.176 825.654 153.19 825.636H153.227C155.223 825.636 156.854 827.22 156.872 829.181V830.98C156.89 832.959 155.268 834.57 153.254 834.579H153.236V834.588ZM152.616 814.911C150.702 814.911 149.098 813.443 148.98 811.536L148.871 809.764C148.743 807.794 150.274 806.094 152.279 805.968C154.284 805.861 156.016 807.347 156.143 809.316L156.253 811.125C156.371 813.103 154.84 814.795 152.826 814.911C152.753 814.911 152.68 814.911 152.607 814.911H152.616ZM150.857 795.298C149.035 795.298 147.458 793.955 147.239 792.137C147.166 791.556 147.093 790.974 147.021 790.383C146.775 788.422 148.187 786.632 150.192 786.39C152.197 786.149 154.011 787.536 154.257 789.506C154.33 790.105 154.402 790.696 154.475 791.296C154.712 793.256 153.282 795.038 151.286 795.271C151.14 795.289 150.994 795.298 150.857 795.298ZM147.877 775.836C146.146 775.836 144.615 774.627 144.296 772.891C144.186 772.309 144.077 771.736 143.968 771.154C143.594 769.211 144.897 767.34 146.875 766.973C148.852 766.606 150.757 767.886 151.131 769.829C151.24 770.42 151.359 771.02 151.468 771.61C151.832 773.553 150.511 775.424 148.533 775.773C148.315 775.809 148.096 775.836 147.877 775.836ZM143.685 756.58C142.045 756.58 140.55 755.488 140.149 753.85C140.003 753.277 139.867 752.704 139.712 752.131C139.219 750.215 140.404 748.264 142.364 747.789C144.314 747.306 146.301 748.47 146.784 750.394C146.929 750.985 147.084 751.567 147.23 752.149C147.713 754.073 146.51 756.007 144.56 756.482C144.268 756.553 143.977 756.589 143.694 756.589L143.685 756.58ZM138.372 737.593C136.814 737.593 135.365 736.599 134.882 735.05L134.353 733.35C133.761 731.461 134.836 729.455 136.768 728.874C138.691 728.292 140.732 729.348 141.325 731.237L141.862 732.965C142.446 734.854 141.361 736.859 139.438 737.432C139.083 737.539 138.727 737.584 138.372 737.584V737.593ZM132.102 718.892C130.598 718.892 129.195 717.97 128.666 716.502L128.056 714.828C127.381 712.966 128.365 710.916 130.261 710.253C132.157 709.582 134.244 710.558 134.918 712.42L135.538 714.121C136.212 715.983 135.219 718.033 133.314 718.686C132.913 718.829 132.503 718.892 132.102 718.892ZM125.057 700.451C123.608 700.451 122.232 699.591 121.667 698.186L121.002 696.53C120.254 694.695 121.166 692.609 123.034 691.875C124.902 691.15 127.026 692.036 127.773 693.871L128.447 695.545C129.186 697.38 128.274 699.466 126.397 700.191C125.959 700.361 125.504 700.442 125.057 700.442V700.451ZM117.484 682.216C116.035 682.216 114.668 681.365 114.094 679.969L113.41 678.295C112.672 676.459 113.583 674.374 115.461 673.648C117.329 672.923 119.452 673.819 120.191 675.663L120.856 677.31C121.603 679.145 120.692 681.231 118.824 681.965C118.377 682.135 117.921 682.225 117.475 682.225L117.484 682.216ZM110.512 663.748C108.999 663.748 107.578 662.808 107.058 661.322L106.466 659.612C105.828 657.741 106.849 655.709 108.762 655.073C110.667 654.437 112.736 655.449 113.383 657.329L113.966 659.012C114.613 660.883 113.602 662.915 111.697 663.56C111.305 663.694 110.913 663.748 110.521 663.748H110.512ZM104.552 644.939C102.957 644.939 101.499 643.91 101.043 642.334C100.879 641.752 100.706 641.171 100.551 640.589C100.013 638.682 101.153 636.712 103.094 636.184C105.035 635.656 107.04 636.775 107.578 638.682C107.733 639.246 107.897 639.819 108.061 640.383C108.607 642.29 107.477 644.268 105.545 644.805C105.217 644.895 104.88 644.939 104.552 644.939ZM99.6581 625.836C97.9812 625.836 96.4775 624.699 96.1038 623.025L95.7119 621.261C95.2836 619.328 96.5413 617.421 98.5098 617.009C100.478 616.588 102.419 617.824 102.839 619.757L103.221 621.494C103.659 623.428 102.41 625.334 100.451 625.764C100.187 625.818 99.9223 625.845 99.6581 625.845V625.836ZM95.9124 606.481C94.1535 606.481 92.6043 605.228 92.3126 603.465C92.2124 602.865 92.1212 602.274 92.0301 601.674C91.7294 599.723 93.0873 597.888 95.0831 597.592C97.0698 597.297 98.9381 598.639 99.2388 600.591C99.33 601.173 99.4211 601.755 99.5214 602.346C99.8403 604.297 98.4824 606.132 96.4957 606.446C96.3043 606.473 96.1129 606.49 95.9215 606.49L95.9124 606.481ZM93.3789 586.939C91.5198 586.939 89.934 585.552 89.7518 583.699C89.6971 583.09 89.6333 582.49 89.5877 581.899C89.4054 579.93 90.8909 578.193 92.8959 578.014C94.9008 577.835 96.6688 579.294 96.8511 581.264C96.9058 581.846 96.9605 582.436 97.0152 583.027C97.2065 584.997 95.7302 586.742 93.7252 586.93C93.6067 586.939 93.4974 586.948 93.3789 586.948V586.939ZM92.1668 567.281C90.1983 567.281 88.5761 565.741 88.5214 563.789C88.5032 563.181 88.4941 562.572 88.485 561.972C88.4485 559.994 90.0525 558.364 92.0666 558.329C92.0848 558.329 92.1121 558.329 92.1395 558.329C94.1171 558.329 95.7484 559.886 95.7848 561.847C95.794 562.429 95.8122 563.019 95.8213 563.61C95.876 565.589 94.2811 567.227 92.2671 567.281C92.2397 567.281 92.2033 567.281 92.1759 567.281H92.1668ZM92.4311 547.586C92.3673 547.586 92.2944 547.586 92.2306 547.586C90.2165 547.479 88.6764 545.796 88.7857 543.817C88.8222 543.2 88.8586 542.591 88.8951 542C89.0227 540.031 90.7542 538.545 92.7592 538.652C94.7641 538.777 96.2952 540.478 96.1676 542.448C96.1312 543.021 96.0947 543.602 96.0674 544.202C95.9671 546.109 94.354 547.595 92.4311 547.595V547.586Z" fill="black"/>
<path d="M151.731 873.135C151.64 873.135 151.539 873.135 151.448 873.126C149.443 872.974 147.94 871.255 148.094 869.286L148.158 868.4C148.313 866.43 150.063 864.962 152.068 865.096C154.073 865.249 155.577 866.967 155.431 868.937L155.358 869.832C155.212 871.712 153.617 873.144 151.731 873.144V873.135Z" fill="black"/>
<path d="M512.498 606.584C511.678 606.584 510.858 606.315 510.174 605.76C508.625 604.498 508.406 602.242 509.691 600.72C510.092 600.246 510.302 600.004 510.302 600.004C511.605 598.5 513.902 598.312 515.442 599.592C516.973 600.873 517.164 603.128 515.861 604.641C515.861 604.65 515.66 604.874 515.305 605.295C514.585 606.154 513.546 606.593 512.498 606.593V606.584Z" fill="black"/>
<path d="M483.955 829.214C483.162 829.214 482.36 828.964 481.686 828.435C481.203 828.059 480.729 827.683 480.255 827.307C478.696 826.054 478.469 823.798 479.744 822.267C481.02 820.737 483.317 820.513 484.875 821.766C485.322 822.124 485.769 822.473 486.224 822.831C487.801 824.058 488.065 826.314 486.807 827.862C486.087 828.749 485.021 829.214 483.955 829.214ZM469.756 815.992C468.735 815.992 467.724 815.58 467.004 814.766C466.594 814.309 466.202 813.853 465.801 813.387C464.507 811.874 464.698 809.618 466.238 808.338C467.779 807.067 470.075 807.255 471.378 808.768C471.743 809.198 472.117 809.627 472.499 810.048C473.821 811.543 473.666 813.799 472.144 815.097C471.451 815.688 470.604 815.974 469.747 815.974L469.756 815.992ZM458.483 800.29C457.198 800.29 455.958 799.628 455.293 798.446C454.992 797.918 454.701 797.381 454.409 796.844C453.47 795.098 454.145 792.932 455.922 792.001C457.699 791.079 459.905 791.741 460.852 793.487C461.117 793.979 461.39 794.471 461.673 794.964C462.648 796.691 462.01 798.876 460.251 799.834C459.695 800.138 459.084 800.281 458.483 800.281V800.29ZM450.919 782.574C449.351 782.574 447.893 781.572 447.428 780.014C447.255 779.432 447.082 778.85 446.918 778.268C446.38 776.362 447.519 774.392 449.461 773.864C451.402 773.336 453.407 774.455 453.944 776.362C454.099 776.899 454.254 777.436 454.418 777.973C454.992 779.871 453.89 781.858 451.967 782.422C451.62 782.521 451.274 782.574 450.928 782.574H450.919ZM447.292 763.694C445.423 763.694 443.838 762.298 443.664 760.436C443.61 759.836 443.555 759.236 443.519 758.628C443.373 756.658 444.876 754.939 446.891 754.796C448.895 754.653 450.645 756.13 450.791 758.108C450.837 758.672 450.882 759.236 450.928 759.791C451.11 761.761 449.634 763.497 447.629 763.676C447.519 763.685 447.41 763.694 447.301 763.694H447.292ZM447.219 744.456C447.127 744.456 447.036 744.456 446.945 744.448C444.94 744.295 443.427 742.585 443.582 740.607C443.628 740.007 443.683 739.408 443.728 738.808C443.901 736.838 445.678 735.379 447.683 735.558C449.688 735.728 451.174 737.474 450.992 739.443C450.937 740.007 450.891 740.58 450.846 741.144C450.7 743.024 449.105 744.456 447.219 744.456ZM450.016 725.398C449.77 725.398 449.515 725.371 449.26 725.317C447.292 724.914 446.025 723.007 446.444 721.074C446.572 720.492 446.699 719.91 446.827 719.319C447.264 717.386 449.205 716.168 451.174 716.589C453.142 717.01 454.382 718.925 453.953 720.859C453.826 721.423 453.707 721.978 453.589 722.542C453.224 724.225 451.712 725.389 450.026 725.389L450.016 725.398ZM455.065 706.786C454.692 706.786 454.318 706.733 453.944 706.616C452.031 706.008 450.973 703.993 451.593 702.113C451.775 701.549 451.967 700.985 452.149 700.421C452.778 698.542 454.837 697.521 456.751 698.139C458.665 698.756 459.704 700.78 459.075 702.659C458.893 703.206 458.711 703.752 458.528 704.298C458.027 705.82 456.596 706.786 455.056 706.786H455.065ZM461.846 688.721C461.381 688.721 460.907 688.632 460.451 688.444C458.592 687.683 457.708 685.588 458.483 683.762C458.711 683.216 458.948 682.67 459.175 682.133C459.959 680.315 462.101 679.456 463.951 680.235C465.801 681.005 466.676 683.108 465.883 684.926C465.655 685.454 465.427 685.982 465.209 686.51C464.625 687.889 463.267 688.721 461.837 688.721H461.846ZM470.002 671.211C469.455 671.211 468.9 671.086 468.38 670.835C466.576 669.949 465.847 667.8 466.74 666.037C467.013 665.509 467.277 664.98 467.551 664.452C468.462 662.689 470.649 661.981 472.454 662.877C474.249 663.772 474.969 665.929 474.058 667.693C473.793 668.203 473.529 668.722 473.265 669.233C472.627 670.486 471.342 671.22 470.002 671.22V671.211ZM479.28 654.238C478.66 654.238 478.04 654.086 477.466 653.764C475.725 652.779 475.124 650.586 476.126 648.876L477.029 647.345C478.04 645.635 480.273 645.053 482.014 646.047C483.754 647.041 484.347 649.234 483.335 650.944L482.451 652.448C481.777 653.602 480.546 654.238 479.289 654.238H479.28ZM489.505 637.793C488.831 637.793 488.138 637.605 487.527 637.22C485.841 636.146 485.349 633.926 486.443 632.27L487.427 630.784C488.53 629.128 490.79 628.662 492.476 629.745C494.162 630.828 494.636 633.049 493.533 634.705L492.567 636.164C491.865 637.22 490.699 637.802 489.505 637.802V637.793ZM500.569 621.876C499.831 621.876 499.083 621.653 498.445 621.205C496.814 620.05 496.44 617.812 497.616 616.21C497.971 615.726 498.327 615.243 498.673 614.777C499.858 613.175 502.136 612.826 503.768 613.99C505.399 615.153 505.754 617.391 504.569 618.994C504.232 619.45 503.886 619.925 503.531 620.399C502.82 621.366 501.699 621.885 500.569 621.885V621.876Z" fill="black"/>
<path d="M499.411 839.553C498.782 839.553 498.144 839.392 497.561 839.061L496.759 838.595C495.028 837.584 494.463 835.39 495.483 833.689C496.513 831.989 498.746 831.434 500.477 832.436L501.252 832.884C502.984 833.886 503.567 836.08 502.546 837.789C501.863 838.926 500.651 839.553 499.402 839.553H499.411Z" fill="black"/>
<path d="M369.998 1096.92C369.907 1096.92 369.816 1096.92 369.734 1096.91C368.485 1096.76 367.592 1095.65 367.738 1094.43C377.927 1009.38 346.486 945.134 323.538 898.225C322.043 895.173 320.585 892.201 319.191 889.3C272.484 792.833 251.323 710.555 254.513 637.757C257.438 570.993 280.796 518.382 299.57 476.102C340.398 384.155 343.104 258.004 343.123 256.741C343.141 255.515 344.162 254.539 345.401 254.539H345.437C346.695 254.557 347.698 255.577 347.679 256.813C347.661 258.084 344.936 385.113 303.744 477.892C284.15 522.017 261.949 572.023 259.06 637.954C255.907 710 276.923 791.589 323.301 887.385C324.695 890.276 326.153 893.239 327.648 896.292C350.842 943.693 382.611 1008.62 372.267 1094.96C372.131 1096.09 371.147 1096.93 370.007 1096.93L369.998 1096.92Z" fill="black"/>
</g>
</g>
<defs>
<clipPath id="clip0_591_4888">
<rect width="633" height="957" fill="white"/>
</clipPath>
</defs>
</svg>
