<svg width="82" height="82" viewBox="0 0 82 82" fill="none" xmlns="http://www.w3.org/2000/svg">
<rect y="2" width="80" height="80" rx="40" fill="#FE7B59"/>
<rect x="2.5" y="0.5" width="79" height="79" rx="39.5" stroke="black"/>
<path d="M52.8 19.2852C51.59 19.2852 50.6 20.2404 50.6 21.4078V23.5305H33V21.4078C33 20.2404 32.01 19.2852 30.8 19.2852C29.59 19.2852 28.6 20.2404 28.6 21.4078V23.5305H26.4C23.958 23.5305 22.022 25.4409 22.022 27.7759L22 57.4933C22 59.8283 23.958 61.7387 26.4 61.7387H57.2C59.62 61.7387 61.6 59.8283 61.6 57.4933V27.7759C61.6 25.4409 59.62 23.5305 57.2 23.5305H55V21.4078C55 20.2404 54.01 19.2852 52.8 19.2852ZM57.2 57.4933H26.4V36.2666H57.2V57.4933ZM39.6 42.6346C39.6 41.4671 40.59 40.5119 41.8 40.5119C43.01 40.5119 44 41.4671 44 42.6346C44 43.8021 43.01 44.7573 41.8 44.7573C40.59 44.7573 39.6 43.8021 39.6 42.6346ZM30.8 42.6346C30.8 41.4671 31.79 40.5119 33 40.5119C34.21 40.5119 35.2 41.4671 35.2 42.6346C35.2 43.8021 34.21 44.7573 33 44.7573C31.79 44.7573 30.8 43.8021 30.8 42.6346ZM48.4 42.6346C48.4 41.4671 49.39 40.5119 50.6 40.5119C51.81 40.5119 52.8 41.4671 52.8 42.6346C52.8 43.8021 51.81 44.7573 50.6 44.7573C49.39 44.7573 48.4 43.8021 48.4 42.6346ZM39.6 51.1253C39.6 49.9578 40.59 49.0026 41.8 49.0026C43.01 49.0026 44 49.9578 44 51.1253C44 52.2928 43.01 53.248 41.8 53.248C40.59 53.248 39.6 52.2928 39.6 51.1253ZM30.8 51.1253C30.8 49.9578 31.79 49.0026 33 49.0026C34.21 49.0026 35.2 49.9578 35.2 51.1253C35.2 52.2928 34.21 53.248 33 53.248C31.79 53.248 30.8 52.2928 30.8 51.1253ZM48.4 51.1253C48.4 49.9578 49.39 49.0026 50.6 49.0026C51.81 49.0026 52.8 49.9578 52.8 51.1253C52.8 52.2928 51.81 53.248 50.6 53.248C49.39 53.248 48.4 52.2928 48.4 51.1253Z" fill="white"/>
</svg>
