<svg width="82" height="82" viewBox="0 0 82 82" fill="none" xmlns="http://www.w3.org/2000/svg">
<rect y="2" width="80" height="80" rx="40" fill="#FE7B59"/>
<rect x="2.5" y="0.5" width="79" height="79" rx="39.5" stroke="black"/>
<path d="M62.0416 32.1945C62.0416 30.957 61.0291 29.9445 59.7916 29.9445H44.0416C42.8041 29.9445 41.7916 30.957 41.7916 32.1945C41.7916 33.432 42.8041 34.4445 44.0416 34.4445H59.7916C61.0291 34.4445 62.0416 33.432 62.0416 32.1945ZM41.7916 50.1945C41.7916 51.4319 42.8041 52.4445 44.0416 52.4445H59.7916C61.0291 52.4445 62.0416 51.4319 62.0416 50.1945C62.0416 48.9569 61.0291 47.9445 59.7916 47.9445H44.0416C42.8041 47.9445 41.7916 48.9569 41.7916 50.1945ZM36.0991 24.612C36.9766 25.4895 36.9766 26.907 36.0991 27.7845L26.5816 37.347C25.7041 38.2245 24.2866 38.2245 23.3866 37.347L18.6166 32.5545C17.7391 31.677 17.7391 30.2595 18.6166 29.382C19.4941 28.5045 20.9116 28.5045 21.7891 29.382L24.9841 32.577L32.9491 24.612C33.8041 23.757 35.2441 23.757 36.0991 24.612ZM36.1216 42.6345C36.9991 43.512 36.9991 44.9295 36.1216 45.807L26.6041 55.3694C25.7266 56.2469 24.3091 56.2469 23.4091 55.3694L18.6166 50.5544C17.7391 49.6769 17.7391 48.2594 18.6166 47.382C19.4941 46.5044 20.9116 46.5044 21.7891 47.382L24.9841 50.577L32.9491 42.6119C33.8041 41.757 35.2441 41.757 36.1216 42.6345Z" fill="white"/>
</svg>
