<svg width="82" height="82" viewBox="0 0 82 82" fill="none" xmlns="http://www.w3.org/2000/svg">
<rect y="2" width="80" height="80" rx="40" fill="#FE7B59"/>
<rect x="2.5" y="0.5" width="79" height="79" rx="39.5" stroke="black"/>
<path d="M62.5698 48.1436L64.2979 46.2909C65.234 45.2873 65.234 43.6662 64.2979 42.6627L64.2499 42.6113C63.3139 41.6077 61.8017 41.6077 60.8656 42.6113L54.001 49.9705L33.4313 27.9185L40.2959 20.5592C41.2319 19.5557 41.2319 17.9346 40.2959 16.9311L40.2478 16.8796C39.3118 15.8761 37.7996 15.8761 36.8636 16.8796L35.1354 18.7323L33.4073 16.8796C32.4712 15.8761 30.935 15.8761 29.999 16.8796L26.5667 20.5592L24.8385 18.7066C23.9024 17.703 22.3423 17.703 21.4062 18.7066C20.4701 19.7101 20.4701 21.3826 21.4062 22.3862L23.1344 24.2389L19.7021 27.9185C18.766 28.922 18.766 30.5431 19.7021 31.5466L21.4302 33.3993L19.7021 35.2777C18.766 36.2813 18.766 37.9024 19.7021 38.9059L19.7501 38.9574C20.6861 39.9609 22.1983 39.9609 23.1344 38.9574L29.999 31.5981L50.5687 53.6501L43.7041 61.0094C42.7681 62.0129 42.7681 63.634 43.7041 64.6375L43.7521 64.689C44.6882 65.6925 46.2004 65.6925 47.1364 64.689L48.8646 62.8363L50.5927 64.689C51.5288 65.6925 53.041 65.6925 53.977 64.689L57.4093 61.0094L59.1375 62.8621C60.0736 63.8656 61.6337 63.8656 62.5698 62.8621C63.5059 61.8585 63.5059 60.186 62.5698 59.1824L60.8416 57.3298L64.2979 53.6501C65.234 52.6466 65.234 51.0255 64.2979 50.022L62.5698 48.1436Z" fill="white"/>
</svg>
