<svg width="82" height="82" viewBox="0 0 82 82" fill="none" xmlns="http://www.w3.org/2000/svg">
<rect y="2" width="80" height="80" rx="40" fill="#FECA7F"/>
<rect x="2.5" y="0.5" width="79" height="79" rx="39.5" stroke="black"/>
<path d="M54 26H52V22H48V26H32V22H28V26H26C23.78 26 22.02 27.8 22.02 30L22 58C22 60.2 23.78 62 26 62H54C56.2 62 58 60.2 58 58V30C58 27.8 56.2 26 54 26ZM54 58H26V38H54V58ZM54 34H26V30H54V34ZM34 46H30V42H34V46ZM42 46H38V42H42V46ZM50 46H46V42H50V46ZM34 54H30V50H34V54ZM42 54H38V50H42V54ZM50 54H46V50H50V54Z" fill="white"/>
</svg>
