<svg width="40" height="40" viewBox="0 0 40 40" fill="none" xmlns="http://www.w3.org/2000/svg">
<path d="M11.7168 0.139875C9.58883 0.240275 8.13563 0.579875 6.86523 1.07908C5.55043 1.59148 4.43603 2.27908 3.32723 3.39188C2.21843 4.50468 1.53563 5.61988 1.02683 6.93668C0.534432 8.20988 0.200832 9.66428 0.106832 11.7935C0.0128324 13.9227 -0.00796757 14.6071 0.00243243 20.0383C0.0128324 25.4695 0.0368324 26.1503 0.140032 28.2839C0.241632 30.4115 0.580032 31.8643 1.07923 33.1351C1.59243 34.4499 2.27923 35.5639 3.39243 36.6731C4.50563 37.7823 5.62003 38.4635 6.94003 38.9731C8.21203 39.4647 9.66683 39.7999 11.7956 39.8931C13.9244 39.9863 14.6096 40.0079 20.0392 39.9975C25.4688 39.9871 26.1524 39.9631 28.2856 39.8619C30.4188 39.7607 31.864 39.4199 33.1352 38.9231C34.45 38.4087 35.5648 37.7231 36.6732 36.6095C37.7816 35.4959 38.464 34.3799 38.9724 33.0623C39.4652 31.7903 39.8 30.3355 39.8924 28.2083C39.9856 26.0735 40.0076 25.3919 39.9972 19.9615C39.9868 14.5311 39.9624 13.8503 39.8612 11.7175C39.76 9.58468 39.4212 8.13628 38.9224 6.86468C38.4084 5.54988 37.7224 4.43668 36.6096 3.32668C35.4968 2.21668 34.38 1.53468 33.0628 1.02748C31.79 0.535075 30.336 0.199475 28.2072 0.107475C26.0784 0.0154752 25.3932 -0.00812478 19.9616 0.00227522C14.53 0.0126752 13.85 0.0358752 11.7168 0.139875ZM11.9504 36.2951C10.0004 36.2103 8.94163 35.8863 8.23603 35.6151C7.30163 35.2551 6.63603 34.8199 5.93283 34.1235C5.22963 33.4271 4.79763 32.7591 4.43283 31.8267C4.15883 31.1211 3.82883 30.0635 3.73763 28.1135C3.63843 26.0059 3.61763 25.3731 3.60603 20.0335C3.59443 14.6939 3.61483 14.0619 3.70723 11.9535C3.79043 10.0051 4.11643 8.94508 4.38723 8.23988C4.74723 7.30428 5.18083 6.63988 5.87883 5.93708C6.57683 5.23428 7.24283 4.80148 8.17603 4.43668C8.88083 4.16148 9.93843 3.83428 11.8876 3.74148C13.9968 3.64148 14.6288 3.62148 19.9676 3.60988C25.3064 3.59828 25.94 3.61828 28.05 3.71108C29.9984 3.79588 31.0588 4.11868 31.7632 4.39108C32.698 4.75108 33.3632 5.18348 34.066 5.88268C34.7688 6.58188 35.202 7.24548 35.5668 8.18068C35.8424 8.88348 36.1696 9.94068 36.2616 11.8911C36.362 14.0003 36.3848 14.6327 36.3944 19.9711C36.404 25.3095 36.3852 25.9435 36.2928 28.0511C36.2076 30.0011 35.8844 31.0603 35.6128 31.7667C35.2528 32.7007 34.8188 33.3667 34.1204 34.0691C33.422 34.7715 32.7568 35.2043 31.8232 35.5691C31.1192 35.8439 30.0604 36.1719 28.1128 36.2647C26.0036 36.3639 25.3716 36.3847 20.0308 36.3963C14.69 36.4079 14.06 36.3863 11.9508 36.2951H11.9504ZM28.2548 9.31068C28.2556 9.78538 28.3972 10.2492 28.6616 10.6435C28.926 11.0377 29.3014 11.3447 29.7403 11.5256C30.1792 11.7065 30.6618 11.7532 31.1273 11.6597C31.5927 11.5663 32.0199 11.3369 32.355 11.0006C32.69 10.6643 32.9178 10.2362 33.0096 9.77047C33.1013 9.30471 33.0529 8.82221 32.8704 8.38398C32.6879 7.94576 32.3795 7.5715 31.9843 7.30854C31.5891 7.04558 31.1247 6.90573 30.65 6.90668C30.0136 6.90795 29.4038 7.16191 28.9547 7.61273C28.5055 8.06354 28.2538 8.67429 28.2548 9.31068ZM9.73083 20.0199C9.74203 25.6919 14.3484 30.2795 20.0192 30.2687C25.69 30.2579 30.2808 25.6519 30.27 19.9799C30.2592 14.3079 25.6516 9.71908 19.98 9.73028C14.3084 9.74148 9.72003 14.3487 9.73083 20.0199ZM13.3332 20.0127C13.3306 18.6941 13.7191 17.4044 14.4495 16.3066C15.1798 15.2088 16.2194 14.3522 17.4366 13.8452C18.6538 13.3382 19.994 13.2035 21.2877 13.4582C22.5814 13.7129 23.7706 14.3455 24.7048 15.276C25.639 16.2065 26.2763 17.3932 26.5361 18.6859C26.7959 19.9786 26.6666 21.3194 26.1644 22.5386C25.6622 23.7578 24.8098 24.8007 23.7149 25.5354C22.62 26.2701 21.3318 26.6637 20.0132 26.6663C19.1377 26.6681 18.2704 26.4975 17.4608 26.1641C16.6513 25.8307 15.9153 25.3411 15.295 24.7232C14.6747 24.1053 14.1821 23.3713 13.8455 22.5631C13.5089 21.7548 13.3349 20.8882 13.3332 20.0127Z" fill="black"/>
</svg>
