<svg width="82" height="82" viewBox="0 0 82 82" fill="none" xmlns="http://www.w3.org/2000/svg">
<rect y="2" width="80" height="80" rx="40" fill="#FECA7F"/>
<rect x="2.5" y="0.5" width="79" height="79" rx="39.5" stroke="black"/>
<path d="M23.8674 37H51.8674V41H55.8674V29C55.8674 26.8 54.0674 25 51.8674 25H49.8674V21H45.8674V25H29.8674V21H25.8674V25H23.8674C21.6474 25 19.8874 26.8 19.8874 29L19.8674 57C19.8674 59.2 21.6474 61 23.8674 61H37.8674V57H23.8674V37ZM23.8674 29H51.8674V33H23.8674V29ZM59.5474 49.56L58.1274 50.98L53.8874 46.74L55.3074 45.32C56.0874 44.54 57.3474 44.54 58.1274 45.32L59.5474 46.74C60.3274 47.52 60.3274 48.78 59.5474 49.56ZM52.4674 48.16L56.7074 52.4L46.1074 63H41.8674V58.76L52.4674 48.16Z" fill="white"/>
</svg>
