<svg width="82" height="82" viewBox="0 0 82 82" fill="none" xmlns="http://www.w3.org/2000/svg">
<rect y="2" width="80" height="80" rx="40" fill="#FECA7F"/>
<rect x="2.5" y="0.5" width="79" height="79" rx="39.5" stroke="black"/>
<path d="M28.0007 47.9994C26.3407 47.9994 24.8407 48.6794 23.7607 49.7594C21.4007 52.1194 20.0007 61.9994 20.0007 61.9994C20.0007 61.9994 29.8807 60.5994 32.2407 58.2394C33.3207 57.1594 34.0007 55.6594 34.0007 53.9994C34.0007 50.6794 31.3207 47.9994 28.0007 47.9994ZM29.4207 55.4194C28.8607 55.9794 25.0807 56.9394 25.0807 56.9394C25.0807 56.9394 26.0207 53.1794 26.6007 52.5994C26.9407 52.2194 27.4407 51.9994 28.0007 51.9994C29.1007 51.9994 30.0007 52.8994 30.0007 53.9994C30.0007 54.5594 29.7807 55.0594 29.4207 55.4194ZM50.8407 45.2994C63.5607 32.5794 59.3207 22.6794 59.3207 22.6794C59.3207 22.6794 49.4207 18.4394 36.7007 31.1594L31.7207 30.1594C30.4207 29.8994 29.0607 30.3194 28.1007 31.2594L20.0007 39.3794L30.0007 43.6594L38.3407 51.9994L42.6207 61.9994L50.7207 53.8994C51.6607 52.9594 52.0807 51.5994 51.8207 50.2794L50.8407 45.2994ZM30.8207 39.6594L27.0007 38.0194L30.9407 34.0794L33.8207 34.6594C32.6807 36.3194 31.6607 38.0594 30.8207 39.6594ZM43.9807 54.9994L42.3407 51.1794C43.9407 50.3394 45.6807 49.3194 47.3207 48.1794L47.9007 51.0594L43.9807 54.9994ZM48.0007 42.4794C45.3607 45.1194 41.2407 47.2794 39.9207 47.9394L34.0607 42.0794C34.7007 40.7794 36.8607 36.6594 39.5207 33.9994C48.8807 24.6394 55.9807 26.0194 55.9807 26.0194C55.9807 26.0194 57.3607 33.1194 48.0007 42.4794ZM46.0007 39.9994C48.2007 39.9994 50.0007 38.1994 50.0007 35.9994C50.0007 33.7994 48.2007 31.9994 46.0007 31.9994C43.8007 31.9994 42.0007 33.7994 42.0007 35.9994C42.0007 38.1994 43.8007 39.9994 46.0007 39.9994Z" fill="white"/>
</svg>
