<svg width="82" height="82" viewBox="0 0 82 82" fill="none" xmlns="http://www.w3.org/2000/svg">
<rect y="2" width="80" height="80" rx="40" fill="#FECA7F"/>
<rect x="2.5" y="0.5" width="79" height="79" rx="39.5" stroke="black"/>
<path d="M30.5 48H27.5V39H24.5V36H30.5V48ZM43.5 45H37.5V43H41.5C42.6 43 43.5 42.1 43.5 41V38C43.5 36.9 42.6 36 41.5 36H34.5V39H40.5V41H36.5C35.4 41 34.5 41.9 34.5 43V48H43.5V45ZM55.5 46V38C55.5 36.9 54.6 36 53.5 36H46.5V39H52.5V41H48.5V43H52.5V45H46.5V48H53.5C54.6 48 55.5 47.1 55.5 46Z" fill="white"/>
</svg>
