<svg width="463" height="570" viewBox="0 0 463 570" fill="none" xmlns="http://www.w3.org/2000/svg">
<circle cx="235.419" cy="278.195" r="227.195" fill="#FEE4BF"/>
<path d="M462.114 282.066C462.114 405.053 358.856 504.784 231.442 504.784C104.028 504.784 0.769531 405.053 0.769531 282.066C0.769531 159.078 104.028 59.3477 231.442 59.3477C358.856 59.3477 462.114 159.078 462.114 282.066Z" stroke="black"/>
<path d="M308.446 472.236L303.562 467.985L303.017 466.564C298.367 454.416 289.01 446.875 278.609 446.875C274.103 446.875 269.821 448.442 265.944 451.117C263.905 446.455 261.444 442.209 258.597 438.439L264.513 430.716C268.181 425.936 270.198 419.56 270.198 412.785V408.401C270.198 394.42 261.478 383.036 250.772 383.036C249.194 383.036 247.616 383.293 246.056 383.793L229.471 389.2C228.969 383.553 228.666 377.889 228.492 372.21L246.356 367.548C256.13 365.008 263.213 353.726 263.213 340.718V337.437C263.213 322.352 253.81 310.077 242.255 310.077H233.16C233.802 306.556 234.479 303.046 235.256 299.561L260.574 294.052C270.199 291.964 277.185 281.195 277.185 268.455C277.185 264.453 276.458 260.439 275.089 256.843L273.027 251.473C269.64 242.618 262.823 237.118 255.241 237.118H247.117C247.494 233.69 247.709 230.241 247.984 226.793L267.922 221.476C277.331 219.017 284.171 208.134 284.171 195.594C284.171 191.519 283.432 187.423 282.035 183.792L280.104 178.751C276.652 169.75 269.732 164.16 262.019 164.16H247.483C246.784 157.1 245.848 150.089 244.723 143.118L255.804 139.499C264.283 136.734 270.2 126.833 270.2 115.42V106.883C270.2 93.203 261.669 82.0674 251.19 82.0674C249.144 82.0674 247.117 82.4949 245.118 83.3702L231.586 89.4244C230.223 85.3734 228.82 81.3346 227.31 77.3768L223.951 68.6111L242.205 59.0801C250.729 54.6464 256.227 44.0485 256.227 32.0749C256.227 27.5802 255.41 23.0732 253.872 19.0706L252.559 15.6507C248.87 5.99345 241.444 0 233.179 0C228.52 0 223.901 2.0072 220.178 5.66327L202.616 22.8648C198.976 19.8887 194.722 18.2398 190.231 18.2398C186.626 18.2398 183.014 19.3513 179.786 21.4602L165.026 31.0971C156.642 36.5609 151.437 47.5618 151.437 59.7876C151.437 63.5455 151.933 67.2381 152.918 70.7595L172.829 142.24C177.173 157.846 179.381 174.188 179.381 190.795C179.381 208.307 176.942 225.467 172.13 241.802L154.119 302.933C147.701 324.703 144.451 347.567 144.451 370.884C144.451 410.571 153.792 448.622 171.466 480.916L176.509 490.137C180.429 497.303 186.807 501.59 193.556 501.59C199.99 501.59 206.138 505.604 209.995 512.322L213.629 518.641C220.546 530.68 231.081 538.529 242.53 540.191L274.853 544.877C282.21 545.952 288.581 551.745 291.884 560.389L295.427 569.627L308.435 558.301C319.492 548.696 326.087 532.598 326.087 515.271C326.087 497.943 319.491 481.845 308.447 472.232L308.446 472.236ZM249.437 401.496C252.93 400.348 256.235 403.894 256.226 408.401V412.786C256.226 414.683 255.662 416.479 254.626 417.818L247.313 427.365C243.932 425.012 240.305 423.151 236.485 421.902L234.04 421.108L233.481 418.188C232.789 414.577 232.218 410.937 231.666 407.289L249.437 401.496ZM158.419 370.888C158.419 365.79 158.606 360.717 158.949 355.677H214.51C214.454 358.132 214.307 360.575 214.307 363.038C214.307 366.942 214.441 370.843 214.578 374.747L158.746 382.034C158.565 378.338 158.419 374.629 158.419 370.888ZM217.659 317.711C216.717 324.25 215.981 330.825 215.451 337.437H161.01C162.413 328.244 164.363 319.197 166.936 310.351L217.659 317.711ZM214.809 85.5461C215.71 87.8993 216.505 90.3055 217.344 92.6954L180.571 116.7L174.633 95.3699L209.778 72.4234L214.809 85.5461ZM185.951 136.006L185.377 133.954L222.764 109.551C224.994 117.286 226.9 125.164 228.534 133.153L189.316 150.216C188.361 145.428 187.257 140.685 185.951 136.006ZM192.865 204.597L235.152 193.551C235.174 195.257 235.265 196.955 235.265 198.661C235.265 205.419 235.012 212.157 234.6 218.878H191.421C192.064 214.156 192.553 209.393 192.865 204.597ZM234.335 175.17L193.179 185.914C193.039 179.986 192.649 174.112 192.019 168.277L231.699 151.015C232.881 158.999 233.754 167.061 234.334 175.171L234.335 175.17ZM185.168 248.357C186.256 244.656 187.157 240.886 188.031 237.12H232.965C232.07 244.672 230.848 252.16 229.438 259.582L183.805 252.962L185.168 248.357ZM215.71 392.93C216.093 397.042 216.611 401.137 217.157 405.234L165.308 425.541C163.171 417.268 161.528 408.796 160.389 400.16L215.71 392.93ZM242.25 328.317C246.099 328.317 249.236 332.413 249.236 337.437V340.719C249.236 345.051 246.875 348.817 243.619 349.663L228.543 353.604C228.814 345.132 229.376 336.688 230.367 328.313L242.25 328.317ZM255.237 255.359C257.495 255.359 259.519 256.991 260.526 259.625L262.588 264.996C262.993 266.066 263.208 267.267 263.208 268.456C263.208 272.251 261.134 275.451 258.262 276.07L239.658 280.121L240.469 276.583C242.075 269.58 243.417 262.491 244.583 255.363L255.237 255.359ZM262.014 182.4C264.397 182.4 266.533 184.122 267.603 186.907L269.536 191.959C269.964 193.079 270.194 194.337 270.194 195.595C270.194 199.471 268.086 202.826 265.142 203.591L248.978 207.907C249.062 204.825 249.236 201.751 249.236 198.661C249.236 193.234 249.096 187.819 248.847 182.399L262.014 182.4ZM249.592 100.659C252.735 99.291 256.222 102.556 256.222 106.896V115.434C256.222 118.463 254.65 121.081 252.408 121.81L241.411 125.405C240.036 119.005 238.548 112.645 236.821 106.392L249.592 100.659ZM228.558 20.2502C232.226 16.6552 238.018 18.4424 240.063 23.7963L241.376 27.2244C241.95 28.7226 242.25 30.4001 242.25 32.0774C242.25 36.5478 240.204 40.4969 237.016 42.154L217.68 52.2591L211.729 36.7273L228.558 20.2502ZM171.264 47.4179L186.024 37.7769C190.503 34.8415 196.351 37.3861 198.599 43.2488L203.53 56.1187L169.822 78.1158L166.036 64.5173C165.618 63.0028 165.403 61.4149 165.403 59.7904C165.403 54.5221 167.646 49.7792 171.264 47.4179ZM178.621 270.557L225.698 277.389L222.24 292.444C221.682 294.879 221.27 297.358 220.765 299.813L172.08 292.746L178.621 270.557ZM170.537 442.531L220.025 423.151L220.452 425.378L181.911 468.506C177.504 460.233 173.731 451.533 170.537 442.531ZM244.065 522.065C236.43 520.954 229.407 515.718 224.797 507.694L221.164 501.375C214.683 490.089 204.357 483.351 193.55 483.351C192.593 483.351 191.67 483.042 190.812 482.565L230.08 438.627L233.09 439.613C242.815 442.788 250.758 451.33 255.005 462.921L247.489 472.741C244.108 477.142 242.25 483.005 242.25 489.242C242.25 500.788 248.852 510.718 257.606 512.36L262.565 513.288C270.998 514.868 278.312 520.629 283.454 528.755C281.184 527.798 278.829 527.114 276.4 526.756L244.065 522.065ZM303.468 540.305C298.618 517.042 283.501 498.766 264.549 495.235L259.59 494.307C257.669 493.949 256.222 491.779 256.222 489.242C256.222 487.903 256.639 486.58 257.366 485.631L269.186 470.2C271.669 466.972 275.096 465.111 278.605 465.111C283.683 465.111 288.245 468.796 290.516 474.724L292.718 480.476L300.689 487.418C307.84 493.639 312.11 504.054 312.11 515.271C312.11 524.948 308.926 534.003 303.468 540.306L303.468 540.305Z" fill="#FE7B59"/>
</svg>
